<svg width="236.80625935153162" height="304.7875061035156" viewBox="0 0 200 257.41507588367244" class="css-1j8o68f"><defs id="SvgjsDefs1844"><linearGradient id="SvgjsLinearGradient1851"><stop id="SvgjsStop1852" stop-color="#616161" offset="0"></stop><stop id="SvgjsStop1853" stop-color="#e6e7e8" offset="0.5"></stop><stop id="SvgjsStop1854" stop-color="#616161" offset="1"></stop></linearGradient><linearGradient id="SvgjsLinearGradient1855"><stop id="SvgjsStop1856" stop-color="#616161" offset="0"></stop><stop id="SvgjsStop1857" stop-color="#e6e7e8" offset="0.5"></stop><stop id="SvgjsStop1858" stop-color="#616161" offset="1"></stop></linearGradient><linearGradient id="SvgjsLinearGradient1859"><stop id="SvgjsStop1860" stop-color="#616161" offset="0"></stop><stop id="SvgjsStop1861" stop-color="#e6e7e8" offset="0.5"></stop><stop id="SvgjsStop1862" stop-color="#616161" offset="1"></stop></linearGradient></defs><g id="SvgjsG1845" featurekey="symbolFeature-0" transform="matrix(0.0019504440634338397,0,0,0.0019504440634338397,41.98635476897723,-13.042619452182086)" fill="url(#SvgjsLinearGradient1851)"><defs xmlns="http://www.w3.org/2000/svg"></defs><g xmlns="http://www.w3.org/2000/svg"><path class="fil0" d="M50062 33207c0,120 -1,239 -4,358 295,-1112 616,-2100 939,-2909 574,-1435 1220,-2350 1837,-2492 -882,-4596 -3060,-8403 -6057,-11298 -4352,-4204 -10433,-6494 -16777,-6494 -6345,0 -12425,2290 -16777,6494 -2997,2895 -5175,6702 -6057,11298 617,142 1263,1056 1837,2492 290,726 579,1598 849,2575 0,-8 0,-16 0,-24l911 0c0,5300 2148,10099 5622,13572 3473,3473 8272,5622 13572,5622 5300,0 10099,-2148 13572,-5622 3473,-3473 5622,-8272 5622,-13572l911 0zm-1157 6738c-1011,2842 -2642,5389 -4731,7478 -3638,3638 -8665,5889 -14217,5889 -5552,0 -10578,-2250 -14217,-5889 -2011,-2011 -3598,-4446 -4615,-7160 75,866 108,1658 100,2347 -23,1794 -389,2968 -1092,3099 -103,19 -208,15 -314,-13 -61,57 -138,97 -226,113 -1326,246 -2690,-566 -3825,-2080 -1069,-1427 -1952,-3499 -2394,-5877 -442,-2378 -363,-4628 121,-6342 501,-1771 1445,-3002 2719,-3294 912,-5298 3355,-10007 6727,-13659 4504,-4877 10666,-7870 17059,-7870 6392,0 12555,2993 17059,7870 3372,3652 5815,8361 6727,13659 1274,292 2218,1523 2719,3294 485,1714 563,3963 121,6342 -442,2379 -1325,4450 -2394,5877 -1134,1513 -2499,2326 -3825,2080 -88,-16 -165,-57 -226,-113 -106,27 -210,32 -314,13 -703,-131 -1069,-1305 -1092,-3099 -10,-772 33,-1675 129,-2665zm6725 -8188c-349,-1234 -917,-2137 -1649,-2509 149,518 229,1200 240,2009 6,474 -8,998 -42,1561l0 14 -1 0c-79,1310 -267,2833 -565,4444 0,8 -7,38 -9,49 -433,2331 -1015,4410 -1606,5886 -285,711 -587,1295 -894,1720 805,-101 1646,-736 2402,-1745 990,-1321 1810,-3257 2227,-5496 416,-2239 346,-4342 -103,-5932zm-2641 -2698c-8,-4 -15,-6 -23,-8 -215,-40 -628,706 -1123,1944 -570,1426 -1134,3443 -1556,5712l0 0c-422,2272 -621,4358 -602,5893 17,1333 135,2177 348,2216 215,40 628,-706 1123,-1944 570,-1426 1134,-3441 1555,-5708l1 -4c292,-1572 478,-3055 557,-4328l-1 0c0,-107 -1,-213 -2,-320 0,-36 -1,-71 -2,-107 -1,-70 -2,-140 -4,-209 -1,-58 -3,-115 -5,-173 -1,-46 -3,-92 -4,-138 -3,-91 -7,-182 -11,-272l-1 -29c-41,-865 -126,-1707 -250,-2525zm-12276 -18464l-423 934c2419,1030 4648,2434 6582,4182 -158,-181 -319,-360 -481,-537 -1681,-1820 -3600,-3367 -5678,-4580zm-1267 593l469 -1038c-3074,-1636 -6460,-2550 -9914,-2550 -3454,0 -6840,914 -9914,2550l469 1038c2957,-1135 6168,-1726 9445,-1726 3277,0 6488,592 9445,1726zm-26316 4524c1933,-1748 4163,-3152 6582,-4182l-423 -934c-2078,1213 -3997,2760 -5678,4580 -163,176 -323,355 -481,537zm-6117 13348c-124,818 -209,1660 -250,2525l-1 29c-4,90 -8,181 -11,272 -2,46 -3,92 -4,138 -2,58 -4,115 -5,173 -2,70 -3,140 -4,209 -1,36 -1,71 -2,107 -1,106 -2,213 -2,320l-1 0c80,1273 265,2756 557,4328l1 4c422,2268 985,4283 1555,5708 495,1238 909,1983 1123,1944 213,-40 331,-884 348,-2216 20,-1535 -179,-3620 -602,-5893l0 0c-422,-2269 -986,-4286 -1556,-5712 -495,-1238 -909,-1984 -1123,-1944 -8,1 -16,4 -23,8zm-1190 3773l-1 0 0 -14c-34,-563 -48,-1087 -42,-1561 10,-808 90,-1491 240,-2009 -731,372 -1300,1276 -1649,2509 -450,1590 -520,3693 -103,5932 416,2239 1237,4175 2227,5496 756,1009 1597,1644 2402,1745 -308,-425 -610,-1008 -894,-1720 -591,-1477 -1172,-3555 -1606,-5886 -2,-10 -9,-40 -9,-49 -298,-1610 -485,-3134 -565,-4444zm24475 -24851l0 874 -684 0 0 -874 684 0zm-19075 15841l2864 0c252,0 456,204 456,456l0 1537c0,252 -204,456 -456,456l-2864 0c-252,0 -456,-204 -456,-456l0 -1537c0,-252 204,-456 456,-456zm2408 911l-1952 0 0 626 1952 0 0 -626zm-2400 2217l2864 0c252,0 456,204 456,456l0 1537c0,252 -204,456 -456,456l-2864 0c-252,0 -456,-204 -456,-456l0 -1537c0,-252 204,-456 456,-456zm2408 911l-1952 0 0 626 1952 0 0 -626zm-2400 2217l2864 0c252,0 456,204 456,456l0 1537c0,252 -204,456 -456,456l-2864 0c-252,0 -456,-204 -456,-456l0 -1537c0,-252 204,-456 456,-456zm2408 911l-1952 0 0 626 1952 0 0 -626zm3371 -13437l2864 0c252,0 456,204 456,456l0 1537c0,252 -204,456 -456,456l-2864 0c-252,0 -456,-204 -456,-456l0 -1537c0,-252 204,-456 456,-456zm2408 911l-1952 0 0 626 1952 0 0 -626zm-2400 2217l2864 0c252,0 456,204 456,456l0 1537c0,252 -204,456 -456,456l-2864 0c-252,0 -456,-204 -456,-456l0 -1537c0,-252 204,-456 456,-456zm2408 911l-1952 0 0 626 1952 0 0 -626zm-2400 2217l2864 0c252,0 456,204 456,456l0 1537c0,252 -204,456 -456,456l-2864 0c-252,0 -456,-204 -456,-456l0 -1537c0,-252 204,-456 456,-456zm2408 911l-1952 0 0 626 1952 0 0 -626zm-2400 2217l2864 0c252,0 456,204 456,456l0 1537c0,252 -204,456 -456,456l-2864 0c-252,0 -456,-204 -456,-456l0 -1537c0,-252 204,-456 456,-456zm2408 911l-1952 0 0 626 1952 0 0 -626zm-2400 2217l2864 0c252,0 456,204 456,456l0 1537c0,252 -204,456 -456,456l-2864 0c-252,0 -456,-204 -456,-456l0 -1537c0,-252 204,-456 456,-456zm2408 911l-1952 0 0 626 1952 0 0 -626zm3385 -7179l2864 0c252,0 456,204 456,456l0 1537c0,252 -204,456 -456,456l-2864 0c-252,0 -456,-204 -456,-456l0 -1537c0,-252 204,-456 456,-456zm2408 911l-1952 0 0 626 1952 0 0 -626zm-2400 2217l2864 0c252,0 456,204 456,456l0 1537c0,252 -204,456 -456,456l-2864 0c-252,0 -456,-204 -456,-456l0 -1537c0,-252 204,-456 456,-456zm2408 911l-1952 0 0 626 1952 0 0 -626zm-2400 2217l2864 0c252,0 456,204 456,456l0 1537c0,252 -204,456 -456,456l-2864 0c-252,0 -456,-204 -456,-456l0 -1537c0,-252 204,-456 456,-456zm2408 911l-1952 0 0 626 1952 0 0 -626zm3363 -16566l2864 0c252,0 456,204 456,456l0 1537c0,252 -204,456 -456,456l-2864 0c-252,0 -456,-204 -456,-456l0 -1537c0,-252 204,-456 456,-456zm2408 911l-1952 0 0 626 1952 0 0 -626zm-2400 2217l2864 0c252,0 456,204 456,456l0 1537c0,252 -204,456 -456,456l-2864 0c-252,0 -456,-204 -456,-456l0 -1537c0,-252 204,-456 456,-456zm2408 911l-1952 0 0 626 1952 0 0 -626zm-2400 2217l2864 0c252,0 456,204 456,456l0 1537c0,252 -204,456 -456,456l-2864 0c-252,0 -456,-204 -456,-456l0 -1537c0,-252 204,-456 456,-456zm2408 911l-1952 0 0 626 1952 0 0 -626zm-2400 2217l2864 0c252,0 456,204 456,456l0 1537c0,252 -204,456 -456,456l-2864 0c-252,0 -456,-204 -456,-456l0 -1537c0,-252 204,-456 456,-456zm2408 911l-1952 0 0 626 1952 0 0 -626zm-2400 2217l2864 0c252,0 456,204 456,456l0 1537c0,252 -204,456 -456,456l-2864 0c-252,0 -456,-204 -456,-456l0 -1537c0,-252 204,-456 456,-456zm2408 911l-1952 0 0 626 1952 0 0 -626zm-2400 2217l2864 0c252,0 456,204 456,456l0 1537c0,252 -204,456 -456,456l-2864 0c-252,0 -456,-204 -456,-456l0 -1537c0,-252 204,-456 456,-456zm2408 911l-1952 0 0 626 1952 0 0 -626zm3378 -10308l2864 0c252,0 456,204 456,456l0 1537c0,252 -204,456 -456,456l-2864 0c-252,0 -456,-204 -456,-456l0 -1537c0,-252 204,-456 456,-456zm2408 911l-1952 0 0 626 1952 0 0 -626zm-2400 2217l2864 0c252,0 456,204 456,456l0 1537c0,252 -204,456 -456,456l-2864 0c-252,0 -456,-204 -456,-456l0 -1537c0,-252 204,-456 456,-456zm2408 911l-1952 0 0 626 1952 0 0 -626zm-2400 2217l2864 0c252,0 456,204 456,456l0 1537c0,252 -204,456 -456,456l-2864 0c-252,0 -456,-204 -456,-456l0 -1537c0,-252 204,-456 456,-456zm2408 911l-1952 0 0 626 1952 0 0 -626zm-2400 2217l2864 0c252,0 456,204 456,456l0 1537c0,252 -204,456 -456,456l-2864 0c-252,0 -456,-204 -456,-456l0 -1537c0,-252 204,-456 456,-456zm2408 911l-1952 0 0 626 1952 0 0 -626zm3371 -13437l2864 0c252,0 456,204 456,456l0 1537c0,252 -204,456 -456,456l-2864 0c-252,0 -456,-204 -456,-456l0 -1537c0,-252 204,-456 456,-456zm2408 911l-1952 0 0 626 1952 0 0 -626zm-2400 2217l2864 0c252,0 456,204 456,456l0 1537c0,252 -204,456 -456,456l-2864 0c-252,0 -456,-204 -456,-456l0 -1537c0,-252 204,-456 456,-456zm2408 911l-1952 0 0 626 1952 0 0 -626zm-2400 2217l2864 0c252,0 456,204 456,456l0 1537c0,252 -204,456 -456,456l-2864 0c-252,0 -456,-204 -456,-456l0 -1537c0,-252 204,-456 456,-456zm2408 911l-1952 0 0 626 1952 0 0 -626zm-2400 2217l2864 0c252,0 456,204 456,456l0 1537c0,252 -204,456 -456,456l-2864 0c-252,0 -456,-204 -456,-456l0 -1537c0,-252 204,-456 456,-456zm2408 911l-1952 0 0 626 1952 0 0 -626zm-2400 2217l2864 0c252,0 456,204 456,456l0 1537c0,252 -204,456 -456,456l-2864 0c-252,0 -456,-204 -456,-456l0 -1537c0,-252 204,-456 456,-456zm2408 911l-1952 0 0 626 1952 0 0 -626zm3385 -7179l2864 0c252,0 456,204 456,456l0 1537c0,252 -204,456 -456,456l-2864 0c-252,0 -456,-204 -456,-456l0 -1537c0,-252 204,-456 456,-456zm2408 911l-1952 0 0 626 1952 0 0 -626zm-2400 2217l2864 0c252,0 456,204 456,456l0 1537c0,252 -204,456 -456,456l-2864 0c-252,0 -456,-204 -456,-456l0 -1537c0,-252 204,-456 456,-456zm2408 911l-1952 0 0 626 1952 0 0 -626zm-2400 2217l2864 0c252,0 456,204 456,456l0 1537c0,252 -204,456 -456,456l-2864 0c-252,0 -456,-204 -456,-456l0 -1537c0,-252 204,-456 456,-456zm2408 911l-1952 0 0 626 1952 0 0 -626zm-16956 2287c0,429 -174,818 -455,1099 -281,281 -670,455 -1099,455 -429,0 -818,-174 -1099,-455 -281,-281 -455,-670 -455,-1099l456 0c0,303 123,578 322,777 199,199 473,322 777,322 303,0 578,-123 777,-322 199,-199 322,-473 322,-777l456 0zm3803 44c0,1466 -594,2794 -1555,3755 -961,961 -2289,1555 -3755,1555 -1466,0 -2794,-594 -3755,-1555 -961,-961 -1555,-2289 -1555,-3755l456 0c0,1341 543,2554 1422,3433 878,878 2092,1422 3433,1422 1341,0 2554,-543 3433,-1422 878,-878 1422,-2092 1422,-3433l456 0zm3288 -55c0,2395 -971,4563 -2540,6132 -1569,1569 -3737,2540 -6132,2540 -2395,0 -4563,-971 -6132,-2540 -1569,-1569 -2540,-3737 -2540,-6132l456 0c0,2269 920,4323 2406,5810 1487,1487 3541,2406 5810,2406 2269,0 4323,-920 5810,-2406 1487,-1487 2406,-3541 2406,-5810l456 0zm1143 0c0,2710 -1099,5164 -2875,6940 -1776,1776 -4230,2875 -6940,2875 -2710,0 -5164,-1099 -6940,-2875 -1776,-1776 -2875,-4230 -2875,-6940l501 0c0,2572 1043,4900 2728,6586 1685,1685 4014,2728 6586,2728 2572,0 4900,-1042 6586,-2728 1685,-1685 2728,-4014 2728,-6586l501 0zm1143 0c0,3026 -1227,5766 -3210,7749 -1983,1983 -4723,3210 -7749,3210 -3026,0 -5766,-1227 -7749,-3210 -1983,-1983 -3210,-4723 -3210,-7749l547 0c0,2875 1165,5478 3050,7362 1884,1884 4487,3050 7362,3050 2875,0 5478,-1165 7362,-3050 1884,-1884 3050,-4487 3050,-7362l547 0zm1143 0c0,3342 -1355,6367 -3545,8557 -2190,2190 -5216,3545 -8557,3545 -3342,0 -6367,-1355 -8557,-3545 -2190,-2190 -3545,-5215 -3545,-8557l592 0c0,3178 1288,6056 3371,8138 2083,2083 4960,3371 8138,3371 3178,0 6056,-1288 8138,-3371 2083,-2083 3371,-4960 3371,-8138l592 0zm1143 0c0,3658 -1483,6969 -3879,9366 -2397,2397 -5708,3879 -9366,3879 -3658,0 -6969,-1483 -9366,-3879 -2397,-2397 -3879,-5708 -3879,-9366l638 0c0,3481 1411,6633 3693,8915 2281,2281 5433,3693 8915,3693 3481,0 6633,-1411 8915,-3693 2281,-2281 3693,-5433 3693,-8915l638 0zm1143 0c0,3973 -1611,7570 -4214,10174 -2604,2604 -6201,4214 -10174,4214 -3973,0 -7570,-1611 -10174,-4214 -2604,-2604 -4214,-6201 -4214,-10174l684 0c0,3785 1534,7211 4014,9691 2480,2480 5906,4014 9691,4014 3785,0 7211,-1534 9691,-4014 2480,-2480 4014,-5906 4014,-9691l684 0zm1143 0c0,4289 -1739,8172 -4549,10983 -2811,2811 -6694,4549 -10983,4549 -4289,0 -8172,-1738 -10983,-4549 -2811,-2811 -4549,-6694 -4549,-10983l729 0c0,4088 1657,7788 4336,10467 2679,2679 6379,4336 10467,4336 4088,0 7788,-1657 10467,-4336 2679,-2679 4336,-6379 4336,-10467l729 0zm1143 0c0,4605 -1866,8774 -4884,11791 -3018,3018 -7186,4884 -11791,4884 -4605,0 -8774,-1866 -11791,-4884 -3018,-3018 -4884,-7186 -4884,-11791l775 0c0,4391 1780,8366 4657,11243 2877,2877 6853,4657 11243,4657 4391,0 8366,-1780 11243,-4657 2877,-2877 4657,-6853 4657,-11243l775 0zm1143 0c0,4920 -1994,9375 -5219,12600 -3225,3225 -7679,5219 -12600,5219 -4920,0 -9375,-1994 -12600,-5219 -3225,-3225 -5219,-7679 -5219,-12600l820 0c0,4694 1903,8944 4979,12020 3076,3076 7326,4979 12020,4979 4694,0 8944,-1903 12020,-4979 3076,-3076 4979,-7326 4979,-12020l820 0zm1143 0c0,5236 -2122,9977 -5554,13408 -3431,3431 -8172,5554 -13408,5554 -5236,0 -9977,-2122 -13408,-5554 -3431,-3431 -5554,-8172 -5554,-13408l866 0c0,4997 2025,9521 5300,12796 3275,3275 7799,5300 12796,5300 4997,0 9521,-2025 12796,-5300 3275,-3275 5300,-7799 5300,-12796l866 0z" style="fill: url(#SvgjsLinearGradient1851); fill-rule: nonzero;"></path></g></g><g id="SvgjsG1846" featurekey="nameFeature-0" transform="matrix(3.5714285714285716,0,0,3.5714285714285716,-7.1428503308977405,83.71428448813302)" fill="url(#SvgjsLinearGradient1855)"><path d="M2 40 l0 -32 l3.6 0 l4.2 20 l0.4 0 l4.2 -20 l3.6 0 l0 32 l-4 0 l0 -16 l-2.84 16 l-2.4 0 l-2.76 -16 l0 16 l-4 0 z M22 40 l0 -16.8 c0 -11.16 0 -15.56 6 -15.56 s6 4.4 6 15.56 l0 16.8 l-4 0 l0 -9.2 l-4 0 l0 9.2 l-4 0 z M26 27.6 l4 0 l0 -4.4 c0 -10.4 0 -12.36 -2 -12.36 s-2 1.96 -2 12.36 l0 4.4 z M38 40 l0 -32 l4 0 l0 32 l-4 0 z M46 40 l0 -16.8 c0 -11.16 0 -15.56 6 -15.56 s6 4.4 6 15.56 l0 16.8 l-4 0 l0 -9.2 l-4 0 l0 9.2 l-4 0 z M50 27.6 l4 0 l0 -4.4 c0 -10.4 0 -12.36 -2 -12.36 s-2 1.96 -2 12.36 l0 4.4 z"></path></g><g id="SvgjsG1847" featurekey="sloganFeature-0" transform="matrix(0.683349802922776,0,0,0.683349802922776,-0.6848684108999382,243.71383367570684)" fill="url(#SvgjsLinearGradient1859)"><path d="M1.02 6.539999999999999 c0 0.96 -0.04 11.28 0 12.2 c0.02 0.22 0.02 0.44 0.02 0.66 c0 0.16 0.1 0.26 0.24 0.32 c0.12 0.04 0.28 0.08 0.4 0.08 c0.58 -0.06 1.2 0 1.8 -0.02 c1.04 0.08 1.98 -0.16 2.88 -0.64 c0.84 -0.48 1.3 -1.34 1.62 -2.24 c0.26 -0.76 0.22 -1.66 0.08 -2.44 c-0.12 -0.7 -0.44 -1.38 -0.86 -1.94 c-0.06 -0.08 -0.92 -0.62 -0.88 -0.66 c0.52 -0.74 1.26 -1.36 1.36 -2.28 c0.08 -0.8 -0.1 -1.62 -0.38 -2.36 c-0.18 -0.48 -0.42 -0.94 -0.8 -1.3 c-0.64 -0.6 -1.6 -0.86 -2.44 -0.94 c-0.86 -0.08 -1.66 -0.02 -2.52 -0.06 c-0.3 0 -0.44 0.12 -0.44 0.44 c0 0.42 -0.08 0.76 -0.08 1.18 z M3.48 10.18 c-0.02 -0.22 0 -1.98 -0.04 -2.64 c-0.02 -0.24 0.12 -0.36 0.38 -0.3 c0.2 0.04 0.36 0.06 0.52 0.18 c0.5 0.38 0.88 0.84 0.9 1.48 c0 0.32 0 0.64 -0.12 0.94 c-0.14 0.36 -0.34 0.64 -0.7 0.82 c-0.24 0.12 -0.46 0.26 -0.7 0.36 c-0.12 0.04 -0.24 -0.02 -0.26 -0.14 c0 -0.24 0.02 -0.7 0.02 -0.7 z M5.48 15.48 c0 0.1 -0.02 0.28 -0.02 0.46 c-0.02 0.6 -0.8 1.36 -1.7 1.38 c-0.06 0 -0.16 -0.06 -0.18 -0.12 c-0.04 -0.12 -0.08 -0.26 -0.08 -0.4 c-0.02 -0.62 0 -1.22 0 -1.88 c0.06 -0.42 0.02 -0.86 0.02 -1.3 c0.02 -0.34 0.1 -0.4 0.42 -0.46 c0.48 -0.06 0.92 0.14 1.14 0.52 c0.26 0.46 0.36 0.96 0.4 1.48 l0 0.32 z M12.405999999999999 8.28 c0 2.02 0.02 4.06 0.06 6.06 c0.02 1.22 0 2.6 0.58 3.72 c0.74 1.44 2.38 2.08 3.96 1.98 c1.08 -0.08 2.08 -0.36 2.86 -1.16 c1.32 -1.42 1.06 -3.64 1.08 -5.46 c0.04 -2.62 0.1 -5.06 0.1 -7.7 c0 -0.44 -0.14 -0.68 -0.58 -0.7 c-0.54 -0.02 -1.08 0 -1.62 0.04 c-0.22 0 -0.4 0.2 -0.4 0.44 c0.02 1.92 0.06 3.86 0.04 5.8 c-0.02 1.66 0.2 3.5 -0.42 5.08 c-0.24 0.58 -0.78 1.02 -1.42 1.02 c-1.6 -0.04 -1.54 -1.94 -1.6 -3.06 c-0.12 -2.44 0.06 -4.94 0.12 -7.38 c0 -0.46 0 -0.92 0.02 -1.38 c0.02 -0.24 0.06 -0.54 -0.26 -0.56 l-0.36 0 c-0.5 0.04 -1 -0.02 -1.5 0 c-0.48 0.04 -0.64 0.18 -0.64 0.66 c0 0.86 -0.02 1.74 -0.02 2.6 z M28.031999999999996 14.84 c-0.06 -2.28 -0.04 -4.7 -0.02 -6.96 c0 -0.7 -0.04 -1.46 -0.04 -2.16 c0 -0.76 -0.3 -0.72 -0.7 -0.74 c-0.58 -0.02 -0.84 -0.02 -1.42 -0.02 c-0.38 -0.02 -0.54 0.08 -0.54 0.46 c0 1.96 -0.06 7.5 -0.04 8.3 s0.1 4.44 0.06 5.24 c-0.02 0.28 0 0.56 0.02 0.84 c0.02 0.1 0.08 0.2 0.24 0.2 c0.66 -0.04 1.28 -0.04 1.94 -0.06 c0.24 -0.02 0.44 -0.08 0.54 -0.34 c0.02 -0.14 -0.04 -3.8 -0.04 -4.76 z M32.298 6.960000000000001 c-0.02 1.24 0.1 10.3 0.08 10.96 c0 0.62 0 1.24 0.02 1.86 c0 0.1 0.06 0.2 0.16 0.2 c1.4 0.06 2.78 -0.06 4.18 -0.04 c0.46 0.02 0.92 0 1.36 0 c0.44 -0.02 0.48 -0.2 0.46 -0.56 c-0.02 -0.56 -0.02 -1.06 -0.02 -1.6 c-0.02 -0.28 -0.18 -0.38 -0.42 -0.38 c-0.82 0.02 -1.64 -0.02 -2.46 0.02 c-0.14 0.02 -0.28 0.02 -0.42 0.02 c-0.24 -0.02 -0.3 -0.08 -0.32 -0.34 l0 -0.3 c-0.06 -1.66 0.06 -3.38 0.06 -5.04 c-0.02 -1.4 0 -2.66 -0.02 -3.9 c0 -0.54 0 -1.08 -0.02 -1.6 c-0.02 -0.32 0 -0.66 -0.08 -0.98 c-0.04 -0.12 -0.1 -0.28 -0.24 -0.28 l-1.88 0 c-0.32 0 -0.42 0.22 -0.44 0.54 l0 1.42 z M51.204 16.32 c0.12 -0.26 0.22 -0.52 0.32 -0.78 c0.22 -0.64 0.26 -1.3 0.32 -1.96 c0.12 -1.4 0.08 -2.82 -0.28 -4.18 c-0.44 -1.74 -1.56 -3.34 -3.24 -4.08 c-0.76 -0.34 -1.62 -0.38 -2.44 -0.36 c-0.86 0 -1.74 -0.04 -2.6 0.04 c-0.24 0.02 -0.36 0.14 -0.4 0.36 c-0.04 0.24 -0.08 0.48 -0.08 0.7 c0.04 1.22 0 4.84 0.04 5.44 c0.02 0.54 -0.04 1.2 -0.04 1.74 c0.02 1.34 0 2.7 0 4.04 c0 0.56 -0.02 1.1 -0.02 1.66 c0 0.6 -0.22 0.86 1.42 0.86 c1.46 0 2.98 -0.12 4.36 -0.64 c1.28 -0.46 2.08 -1.64 2.64 -2.84 z M45.384 14.24 l0 -2.4 c0 -1.52 0.04 -2.5 -0.02 -3.78 l0 -0.24 c0.02 -0.42 0.08 -0.44 0.52 -0.44 c0.58 -0.02 1 0.12 1.5 0.32 s0.78 0.64 1.04 1.06 c0.5 0.82 0.7 1.72 0.74 2.66 c0.02 0.54 0.04 1.08 0.04 1.62 c0 2.56 -1.5 4.34 -2.82 4.34 c-0.88 0 -1.02 0.06 -1.02 -0.52 c0 -0.6 0.04 -1.2 0.04 -1.8 c-0.02 -0.26 -0.02 -0.54 -0.02 -0.82 z M58.88999999999999 14.84 c-0.06 -2.28 -0.04 -4.7 -0.02 -6.96 c0 -0.7 -0.04 -1.46 -0.04 -2.16 c0 -0.76 -0.3 -0.72 -0.7 -0.74 c-0.58 -0.02 -0.84 -0.02 -1.42 -0.02 c-0.38 -0.02 -0.54 0.08 -0.54 0.46 c0 1.96 -0.06 7.5 -0.04 8.3 s0.1 4.44 0.06 5.24 c-0.02 0.28 0 0.56 0.02 0.84 c0.02 0.1 0.08 0.2 0.24 0.2 c0.66 -0.04 1.28 -0.04 1.94 -0.06 c0.24 -0.02 0.44 -0.08 0.54 -0.34 c0.02 -0.14 -0.04 -3.8 -0.04 -4.76 z M71.67599999999999 5.460000000000001 c0.06 0.28 0.02 13.6 0.02 13.94 c0 0.6 -0.22 0.58 -0.62 0.58 c-0.6 0 -1.44 0.1 -1.62 -0.1 c-0.16 -0.14 -3.12 -7.28 -3.54 -8.18 c-0.04 -0.08 -0.14 -0.28 -0.22 -0.24 c-0.1 0.04 -0.06 0.18 -0.06 0.26 c-0.02 0.7 0.1 6.74 0.1 7.7 c0 0.48 -0.02 0.56 -0.42 0.56 l-1 0 c-0.26 0 -0.58 -0.02 -0.84 0.02 c-0.2 0 -0.3 -0.06 -0.32 -0.26 l0 -1.58 c0.04 -1.68 0 -11.64 0 -12.38 c0 -0.64 0.18 -0.76 0.82 -0.76 c0.44 -0.02 0.88 -0.02 1.32 -0.02 c0.14 0 0.22 0.02 0.3 0.2 c0.54 1.26 2.84 7.04 3.2 7.74 c0.06 0.14 0.28 0.7 0.4 0.76 l0.02 0 c0.08 -0.08 0.06 -0.48 0.06 -0.6 c0 -0.3 -0.16 -7.32 -0.16 -7.46 c0 -0.2 -0.06 -0.38 0.04 -0.52 c0.06 -0.08 0.32 -0.1 0.42 -0.12 c0.56 -0.04 1.22 0.02 1.78 0 c0.28 0 0.26 0.2 0.32 0.46 z M84.88199999999999 16.64 c0.02 0.96 0 1.94 -0.06 2.9 c0 0.08 -0.06 0.16 -0.12 0.2 c-0.08 0.06 -0.18 0.1 -0.28 0.1 c-1.24 0.2 -2.74 0.3 -3.94 -0.1 c-2.7 -0.92 -4.54 -3.94 -4.54 -7.4 c0 -3.74 2.68 -7.38 6.58 -7.52 c0.52 -0.02 2.3 -0.1 2.24 0.78 c-0.04 0.64 0.02 1.16 0 1.82 c0 0.12 -0.08 0.2 -0.2 0.18 c-1.14 -0.14 -2.44 -0.5 -3.54 0.02 c-0.92 0.44 -1.56 1.38 -1.92 2.3 c-0.64 1.52 -0.5 3.28 -0.06 4.84 c0.34 1.24 1.08 2.7 2.56 2.74 c0.08 0.02 0.84 0.06 0.84 -0.02 l-0.06 -2.56 c-0.02 -0.12 -0.02 -0.24 -0.04 -0.36 s-0.1 -0.16 -0.22 -0.18 c-0.32 0 -0.32 -0.02 -0.64 -0.02 c-0.74 0 -0.58 -0.5 -0.6 -0.66 c-0.02 -0.3 0 -0.58 -0.02 -0.88 c-0.02 -0.28 0.06 -0.5 0.34 -0.54 l0.24 0 c1.04 -0.06 2.1 0.02 3.2 0.02 c0.16 0 0.24 0.2 0.24 0.38 c0.02 0.2 0.02 0.34 0.02 0.54 c0.06 0.98 -0.06 1.98 -0.04 2.96 c0.02 0.16 0.02 0.3 0.02 0.46 z M98.914 17.82 c0.02 0.62 0.02 1.24 0.04 1.86 c0 0.28 0.02 0.32 0.3 0.32 l1.8 0 c0.38 0 0.3 -0.64 0.28 -0.98 l0.06 -11.2 c0 -0.3 0.1 -0.4 0.5 -0.4 l1.76 0 c0.42 0 0.32 -0.72 0.32 -1.22 c0 -0.44 0.16 -1.2 -0.32 -1.2 c-0.34 0 -3.6 0 -4.94 0.02 c-0.66 0 -1.2 -0.02 -1.86 -0.02 c-0.5 0 -0.48 0.4 -0.48 1.28 c0 0.56 -0.02 1.12 0.46 1.12 c0.28 0 1.42 0 1.74 0.02 c0.2 0 0.34 0.06 0.38 0.28 c0 0.06 0.02 0.12 0.02 0.18 c0 1.44 -0.1 8.14 -0.06 9.94 z M114.22 14.08 c0 0.9 -0.02 2.68 -0.04 2.68 l0 2.72 c0 0.12 -0.02 0.32 0.04 0.44 c0.06 0.14 0.24 0.1 0.36 0.08 c0.58 -0.06 1.16 0.02 1.74 0 c0.64 -0.02 0.44 -1 0.42 -1.4 c-0.08 -0.88 0.02 -7.58 0.02 -9.98 c0 -1.08 -0.04 -3.3 -0.1 -3.4 c-0.1 -0.18 -0.36 -0.22 -0.56 -0.24 c-0.44 -0.08 -0.66 0.04 -1.32 0.04 s-0.7 0.2 -0.7 0.9 l0 0.6 c-0.02 0.48 0.06 3.84 0.06 4.38 c0 0.26 -0.02 0.28 -0.28 0.28 c-0.66 -0.02 -1.58 0.06 -2.26 0 c-0.98 -0.08 -0.76 0 -0.82 -0.9 l0 -0.12 c0 -1.28 0.16 -4.6 0.1 -4.8 c-0.1 -0.3 -0.22 -0.36 -0.48 -0.34 c-0.6 0.04 -1.22 -0.06 -1.82 -0.02 c-0.2 0.02 -0.26 0.08 -0.32 0.28 c-0.02 0.1 -0.04 0.2 -0.04 0.3 c0 0.62 0.04 1.46 0.06 2.08 l-0.06 11.86 c0 0.52 0.46 0.46 1.48 0.46 c0.94 0 1.18 0.22 1.18 -0.9 c0 -0.9 -0.06 -2.04 -0.04 -2.94 c0.02 -0.7 0 -1.38 0 -2.08 c0.02 -0.26 0.08 -0.34 0.32 -0.34 c0.88 -0.02 1.84 0 2.72 0 c0.28 0 0.34 0.04 0.34 0.36 z M121.026 15.9 l-0.02 0 c0 0.5 -0.02 1.02 0 1.54 c0.02 0.64 0.06 1.28 0.1 1.92 c0 0.22 0.06 0.28 0.26 0.32 c0.42 0.1 0.82 0.12 1.24 0.12 c1.08 -0.04 2.16 0.04 3.24 0 c0.44 -0.02 0.64 0.02 1.08 -0.06 c0.4 -0.08 0.54 -0.3 0.54 -0.9 c-0.04 -0.38 -0.02 -0.54 -0.02 -1 c0 -0.66 -0.46 -0.88 -0.86 -0.86 c-0.28 0.02 -1.62 -0.02 -2.16 -0.02 c-0.9 0.02 -0.76 0.14 -0.76 -0.8 c0 -0.76 0.02 -1.74 0.02 -2.52 c0 -0.42 0.04 -0.56 0.44 -0.56 l2.5 0 c0.4 0.06 0.68 -0.22 0.68 -0.64 s0.04 -0.44 0.04 -0.86 l-0.06 -0.6 c-0.04 -0.34 -0.16 -0.46 -0.5 -0.46 c-0.22 0 -0.44 0.02 -0.66 0.04 c-0.86 0.06 -1.26 -0.06 -2.1 0 c-0.28 0 -0.32 -0.04 -0.34 -0.3 c-0.08 -0.78 0 -1.64 0.08 -2.42 c0.02 -0.32 0.1 -0.38 0.4 -0.4 l2.82 -0.02 c0.38 -0.04 0.5 -0.02 0.48 -0.4 c-0.04 -0.58 0.02 -1.18 -0.04 -1.76 c-0.04 -0.32 -0.14 -0.38 -0.5 -0.38 c-0.6 0.02 -0.74 0.02 -1.34 0.06 c-0.6 0.02 -3 0.02 -3.58 0.02 c-0.84 0 -0.9 -0.06 -0.92 0.96 c-0.04 0.8 -0.02 1.62 -0.02 2.44 c0 1.4 -0.08 6.42 -0.04 7.54 z M140.758 19.84 c0.06 0.02 0.24 0.02 0.42 0.02 c0.4 0 0.52 -1.44 0.56 -1.74 c0.02 -0.24 0.08 -0.26 0.28 -0.3 c1 -0.12 1.5 -0.04 2.5 -0.02 c0.22 0 0.34 0.1 0.4 0.28 l0.14 0.46 c0.12 0.34 0.22 0.76 0.34 1.1 c0.08 0.24 0.1 0.22 0.34 0.22 c0.32 0 1.48 0 1.82 -0.02 c0.46 0 0.14 -0.94 0.08 -1.1 c-0.18 -0.56 -0.22 -1.14 -0.4 -1.7 c-0.08 -0.24 -2.36 -11.06 -2.46 -11.66 c-0.14 -0.36 -0.02 -0.38 -0.34 -0.38 c-0.68 0 -1.4 0.04 -2.1 0 c-0.28 0 -0.26 0.08 -0.3 0.38 c-0.04 0.28 -0.76 3.46 -1.04 4.78 c-0.36 1.66 -0.68 3.26 -1.08 4.9 c-0.14 0.58 -1.1 4.76 -0.98 4.78 c0.06 0.04 0.16 0.02 0.24 0.02 c0.5 0 0.96 0 1.58 -0.02 z M143.37800000000001 15.3 l-0.42 0 c-0.56 0 -0.58 0 -0.44 -0.58 c0.1 -0.44 0.64 -2.82 0.76 -3.4 c0.02 -0.04 0.06 -0.08 0.08 -0.08 c0.04 0 0.08 0.04 0.1 0.06 c0.08 0.24 0.16 0.84 0.24 1.08 c0.18 0.76 0.3 1.4 0.48 2.22 c0.18 0.72 0.1 0.72 -0.26 0.72 c-0.18 0 -0.36 -0.02 -0.54 -0.02 z M160.544 5.460000000000001 c0.06 0.28 0.02 13.6 0.02 13.94 c0 0.6 -0.22 0.58 -0.62 0.58 c-0.6 0 -1.44 0.1 -1.62 -0.1 c-0.16 -0.14 -3.12 -7.28 -3.54 -8.18 c-0.04 -0.08 -0.14 -0.28 -0.22 -0.24 c-0.1 0.04 -0.06 0.18 -0.06 0.26 c-0.02 0.7 0.1 6.74 0.1 7.7 c0 0.48 -0.02 0.56 -0.42 0.56 l-1 0 c-0.26 0 -0.58 -0.02 -0.84 0.02 c-0.2 0 -0.3 -0.06 -0.32 -0.26 l0 -1.58 c0.04 -1.68 0 -11.64 0 -12.38 c0 -0.64 0.18 -0.76 0.82 -0.76 c0.44 -0.02 0.88 -0.02 1.32 -0.02 c0.14 0 0.22 0.02 0.3 0.2 c0.54 1.26 2.84 7.04 3.2 7.74 c0.06 0.14 0.28 0.7 0.4 0.76 l0.02 0 c0.08 -0.08 0.06 -0.48 0.06 -0.6 c0 -0.3 -0.16 -7.32 -0.16 -7.46 c0 -0.2 -0.06 -0.38 0.04 -0.52 c0.06 -0.08 0.32 -0.1 0.42 -0.12 c0.56 -0.04 1.22 0.02 1.78 0 c0.28 0 0.26 0.2 0.32 0.46 z M172.71 7.359999999999999 c0.02 -0.66 0 -1.2 0 -1.84 c0 -0.74 -1.34 -0.66 -1.82 -0.64 c-2.14 0.14 -4.18 1.5 -5.16 3.36 c-0.28 0.54 -0.48 1.1 -0.62 1.68 c-0.34 1.36 -0.36 2.8 -0.2 4.18 c0.14 1.3 0.48 2.6 1.28 3.64 c1.38 1.82 3.92 2.46 6.1 2.12 c0.1 -0.02 0.2 -0.04 0.28 -0.1 c0.06 -0.04 0.12 -0.12 0.12 -0.2 l0.06 -1.14 c0.02 -0.36 0 -0.34 0 -0.7 c0 -0.48 -1 -0.12 -1.62 -0.12 c-0.6 0 -1.24 -0.02 -1.78 -0.3 c-0.96 -0.54 -1.5 -1.62 -1.8 -2.64 c-0.34 -1.1 -0.42 -2.28 -0.22 -3.4 c0.24 -1.46 0.94 -3.14 2.48 -3.64 c0.88 -0.3 1.82 -0.2 2.7 -0.1 c0.12 0.02 0.2 -0.06 0.2 -0.16 z M179.736 14.84 c-0.06 -2.28 -0.04 -4.7 -0.02 -6.96 c0 -0.7 -0.04 -1.46 -0.04 -2.16 c0 -0.76 -0.3 -0.72 -0.7 -0.74 c-0.58 -0.02 -0.84 -0.02 -1.42 -0.02 c-0.38 -0.02 -0.54 0.08 -0.54 0.46 c0 1.96 -0.06 7.5 -0.04 8.3 s0.1 4.44 0.06 5.24 c-0.02 0.28 0 0.56 0.02 0.84 c0.02 0.1 0.08 0.2 0.24 0.2 c0.66 -0.04 1.28 -0.04 1.94 -0.06 c0.24 -0.02 0.44 -0.08 0.54 -0.34 c0.02 -0.14 -0.04 -3.8 -0.04 -4.76 z M184.02200000000002 15.9 l-0.02 0 c0 0.5 -0.02 1.02 0 1.54 c0.02 0.64 0.06 1.28 0.1 1.92 c0 0.22 0.06 0.28 0.26 0.32 c0.42 0.1 0.82 0.12 1.24 0.12 c1.08 -0.04 2.16 0.04 3.24 0 c0.44 -0.02 0.64 0.02 1.08 -0.06 c0.4 -0.08 0.54 -0.3 0.54 -0.9 c-0.04 -0.38 -0.02 -0.54 -0.02 -1 c0 -0.66 -0.46 -0.88 -0.86 -0.86 c-0.28 0.02 -1.62 -0.02 -2.16 -0.02 c-0.9 0.02 -0.76 0.14 -0.76 -0.8 c0 -0.76 0.02 -1.74 0.02 -2.52 c0 -0.42 0.04 -0.56 0.44 -0.56 l2.5 0 c0.4 0.06 0.68 -0.22 0.68 -0.64 s0.04 -0.44 0.04 -0.86 l-0.06 -0.6 c-0.04 -0.34 -0.16 -0.46 -0.5 -0.46 c-0.22 0 -0.44 0.02 -0.66 0.04 c-0.86 0.06 -1.26 -0.06 -2.1 0 c-0.28 0 -0.32 -0.04 -0.34 -0.3 c-0.08 -0.78 0 -1.64 0.08 -2.42 c0.02 -0.32 0.1 -0.38 0.4 -0.4 l2.82 -0.02 c0.38 -0.04 0.5 -0.02 0.48 -0.4 c-0.04 -0.58 0.02 -1.18 -0.04 -1.76 c-0.04 -0.32 -0.14 -0.38 -0.5 -0.38 c-0.6 0.02 -0.74 0.02 -1.34 0.06 c-0.6 0.02 -3 0.02 -3.58 0.02 c-0.84 0 -0.9 -0.06 -0.92 0.96 c-0.04 0.8 -0.02 1.62 -0.02 2.44 c0 1.4 -0.08 6.42 -0.04 7.54 z M203.20800000000003 5.460000000000001 c0.06 0.28 0.02 13.6 0.02 13.94 c0 0.6 -0.22 0.58 -0.62 0.58 c-0.6 0 -1.44 0.1 -1.62 -0.1 c-0.16 -0.14 -3.12 -7.28 -3.54 -8.18 c-0.04 -0.08 -0.14 -0.28 -0.22 -0.24 c-0.1 0.04 -0.06 0.18 -0.06 0.26 c-0.02 0.7 0.1 6.74 0.1 7.7 c0 0.48 -0.02 0.56 -0.42 0.56 l-1 0 c-0.26 0 -0.58 -0.02 -0.84 0.02 c-0.2 0 -0.3 -0.06 -0.32 -0.26 l0 -1.58 c0.04 -1.68 0 -11.64 0 -12.38 c0 -0.64 0.18 -0.76 0.82 -0.76 c0.44 -0.02 0.88 -0.02 1.32 -0.02 c0.14 0 0.22 0.02 0.3 0.2 c0.54 1.26 2.84 7.04 3.2 7.74 c0.06 0.14 0.28 0.7 0.4 0.76 l0.02 0 c0.08 -0.08 0.06 -0.48 0.06 -0.6 c0 -0.3 -0.16 -7.32 -0.16 -7.46 c0 -0.2 -0.06 -0.38 0.04 -0.52 c0.06 -0.08 0.32 -0.1 0.42 -0.12 c0.56 -0.04 1.22 0.02 1.78 0 c0.28 0 0.26 0.2 0.32 0.46 z M210.014 17.82 c0.02 0.62 0.02 1.24 0.04 1.86 c0 0.28 0.02 0.32 0.3 0.32 l1.8 0 c0.38 0 0.3 -0.64 0.28 -0.98 l0.06 -11.2 c0 -0.3 0.1 -0.4 0.5 -0.4 l1.76 0 c0.42 0 0.32 -0.72 0.32 -1.22 c0 -0.44 0.16 -1.2 -0.32 -1.2 c-0.34 0 -3.6 0 -4.94 0.02 c-0.66 0 -1.2 -0.02 -1.86 -0.02 c-0.5 0 -0.48 0.4 -0.48 1.28 c0 0.56 -0.02 1.12 0.46 1.12 c0.28 0 1.42 0 1.74 0.02 c0.2 0 0.34 0.06 0.38 0.28 c0 0.06 0.02 0.12 0.02 0.18 c0 1.44 -0.1 8.14 -0.06 9.94 z M226.56600000000003 15.9 l-0.02 0 c0 0.5 -0.02 1.02 0 1.54 c0.02 0.64 0.04 1.28 0.08 1.92 c0.02 0.22 0.06 0.28 0.28 0.32 c0.4 0.1 0.82 0.12 1.24 0.12 c1.08 -0.04 1.08 -0.22 1.08 -0.96 c-0.04 -0.38 -0.02 -0.54 -0.02 -1 c0 -0.66 -0.02 -0.74 -0.02 -1.68 c0.02 -0.76 0.02 -1.74 0.02 -2.52 c0 -0.42 0.06 -0.56 0.44 -0.56 l2.92 0 c0.42 0.06 0.26 -0.22 0.26 -0.64 s0.06 -0.44 0.04 -0.86 c0 -0.2 -0.04 -0.4 -0.06 -0.6 c-0.04 -0.34 -0.16 -0.46 -0.5 -0.46 c-0.22 0 -0.02 0.02 -0.22 0.04 c-0.86 0.06 -1.68 -0.06 -2.54 0 c-0.28 0 -0.32 -0.04 -0.34 -0.3 c-0.06 -0.78 0 -1.64 0.08 -2.42 c0.04 -0.32 0.1 -0.38 0.4 -0.4 l2.82 -0.02 c0.4 -0.04 0.52 -0.02 0.48 -0.4 c-0.04 -0.58 0.04 -1.18 -0.04 -1.76 c-0.04 -0.32 -0.12 -0.38 -0.48 -0.38 c-0.6 0.02 -0.74 0.02 -1.34 0.06 c-0.6 0.02 -3.02 0.02 -3.6 0.02 c-0.82 0 -0.9 -0.06 -0.92 0.96 c-0.02 0.8 -0.02 1.62 -0.02 2.44 c0 1.4 -0.08 6.42 -0.02 7.54 z M237.21200000000002 8.28 c0 2.02 0.02 4.06 0.06 6.06 c0.02 1.22 0 2.6 0.58 3.72 c0.74 1.44 2.38 2.08 3.96 1.98 c1.08 -0.08 2.08 -0.36 2.86 -1.16 c1.32 -1.42 1.06 -3.64 1.08 -5.46 c0.04 -2.62 0.1 -5.06 0.1 -7.7 c0 -0.44 -0.14 -0.68 -0.58 -0.7 c-0.54 -0.02 -1.08 0 -1.62 0.04 c-0.22 0 -0.4 0.2 -0.4 0.44 c0.02 1.92 0.06 3.86 0.04 5.8 c-0.02 1.66 0.2 3.5 -0.42 5.08 c-0.24 0.58 -0.78 1.02 -1.42 1.02 c-1.6 -0.04 -1.54 -1.94 -1.6 -3.06 c-0.12 -2.44 0.06 -4.94 0.12 -7.38 c0 -0.46 0 -0.92 0.02 -1.38 c0.02 -0.24 0.06 -0.54 -0.26 -0.56 l-0.36 0 c-0.5 0.04 -1 -0.02 -1.5 0 c-0.48 0.04 -0.64 0.18 -0.64 0.66 c0 0.86 -0.02 1.74 -0.02 2.6 z M252.61800000000002 17.82 c0.02 0.62 0.02 1.24 0.04 1.86 c0 0.28 0.02 0.32 0.3 0.32 l1.8 0 c0.38 0 0.3 -0.64 0.28 -0.98 l0.06 -11.2 c0 -0.3 0.1 -0.4 0.5 -0.4 l1.76 0 c0.42 0 0.32 -0.72 0.32 -1.22 c0 -0.44 0.16 -1.2 -0.32 -1.2 c-0.34 0 -3.6 0 -4.94 0.02 c-0.66 0 -1.2 -0.02 -1.86 -0.02 c-0.5 0 -0.48 0.4 -0.48 1.28 c0 0.56 -0.02 1.12 0.46 1.12 c0.28 0 1.42 0 1.74 0.02 c0.2 0 0.34 0.06 0.38 0.28 c0 0.06 0.02 0.12 0.02 0.18 c0 1.44 -0.1 8.14 -0.06 9.94 z M261.92400000000004 8.28 c0 2.02 0.02 4.06 0.06 6.06 c0.02 1.22 0 2.6 0.58 3.72 c0.74 1.44 2.38 2.08 3.96 1.98 c1.08 -0.08 2.08 -0.36 2.86 -1.16 c1.32 -1.42 1.06 -3.64 1.08 -5.46 c0.04 -2.62 0.1 -5.06 0.1 -7.7 c0 -0.44 -0.14 -0.68 -0.58 -0.7 c-0.54 -0.02 -1.08 0 -1.62 0.04 c-0.22 0 -0.4 0.2 -0.4 0.44 c0.02 1.92 0.06 3.86 0.04 5.8 c-0.02 1.66 0.2 3.5 -0.42 5.08 c-0.24 0.58 -0.78 1.02 -1.42 1.02 c-1.6 -0.04 -1.54 -1.94 -1.6 -3.06 c-0.12 -2.44 0.06 -4.94 0.12 -7.38 c0 -0.46 0 -0.92 0.02 -1.38 c0.02 -0.24 0.06 -0.54 -0.26 -0.56 l-0.36 0 c-0.5 0.04 -1 -0.02 -1.5 0 c-0.48 0.04 -0.64 0.18 -0.64 0.66 c0 0.86 -0.02 1.74 -0.02 2.6 z M277.27000000000004 18.5 c0 -0.52 0 -3.8 0.02 -4.06 c0.02 -0.06 0.06 -0.18 0.14 -0.18 s0.12 0.04 0.14 0.1 c0.8 1.56 1.5 3.12 2.22 4.64 c0.1 0.22 0.32 0.86 0.38 0.92 c0.08 0.12 0.22 0.08 0.34 0.08 l2.2 0.02 c0.26 0 0.32 -0.16 0.26 -0.38 c-0.16 -0.6 -1.3 -2.72 -1.56 -3.24 c-0.18 -0.4 -1.38 -2.72 -1.42 -2.9 c-0.04 -0.08 0.26 -0.22 0.3 -0.28 c0.96 -0.86 1.82 -1.74 2 -3.08 c0.2 -1.32 -0.1 -2.76 -0.96 -3.82 c-0.66 -0.78 -1.52 -1.24 -2.54 -1.3 c-0.62 -0.04 -1.22 0.02 -1.84 0 c-0.54 -0.02 -0.92 -0.02 -1.6 -0.02 c-0.32 0 -0.52 0.18 -0.54 0.52 l0 0.24 c-0.04 1.54 0 3.08 0.02 4.6 c0 2.32 -0.04 8.44 -0.04 9.32 c0 0.26 0.04 0.32 0.28 0.32 c0.14 0 0.3 0.02 0.44 0.02 c0.56 0 0.9 -0.02 1.48 -0.02 c0.44 0 0.28 -0.72 0.28 -1.5 z M277.27000000000004 10.7 l0.02 -2.02 c0.02 -0.3 -0.08 -0.9 0.2 -1.12 c0.38 -0.28 1.16 0 1.5 0.24 c1 0.68 0.92 2.36 0.38 3.3 c-0.26 0.44 -0.7 0.7 -1.2 0.84 c-0.3 0.08 -0.86 0.18 -0.88 -0.3 c0 -0.32 -0.02 -0.94 -0.02 -0.94 z M287.236 15.9 l-0.02 0 c0 0.5 -0.02 1.02 0 1.54 c0.02 0.64 0.06 1.28 0.1 1.92 c0 0.22 0.06 0.28 0.26 0.32 c0.42 0.1 0.82 0.12 1.24 0.12 c1.08 -0.04 2.16 0.04 3.24 0 c0.44 -0.02 0.64 0.02 1.08 -0.06 c0.4 -0.08 0.54 -0.3 0.54 -0.9 c-0.04 -0.38 -0.02 -0.54 -0.02 -1 c0 -0.66 -0.46 -0.88 -0.86 -0.86 c-0.28 0.02 -1.62 -0.02 -2.16 -0.02 c-0.9 0.02 -0.76 0.14 -0.76 -0.8 c0 -0.76 0.02 -1.74 0.02 -2.52 c0 -0.42 0.04 -0.56 0.44 -0.56 l2.5 0 c0.4 0.06 0.68 -0.22 0.68 -0.64 s0.04 -0.44 0.04 -0.86 l-0.06 -0.6 c-0.04 -0.34 -0.16 -0.46 -0.5 -0.46 c-0.22 0 -0.44 0.02 -0.66 0.04 c-0.86 0.06 -1.26 -0.06 -2.1 0 c-0.28 0 -0.32 -0.04 -0.34 -0.3 c-0.08 -0.78 0 -1.64 0.08 -2.42 c0.02 -0.32 0.1 -0.38 0.4 -0.4 l2.82 -0.02 c0.38 -0.04 0.5 -0.02 0.48 -0.4 c-0.04 -0.58 0.02 -1.18 -0.04 -1.76 c-0.04 -0.32 -0.14 -0.38 -0.5 -0.38 c-0.6 0.02 -0.74 0.02 -1.34 0.06 c-0.6 0.02 -3 0.02 -3.58 0.02 c-0.84 0 -0.9 -0.06 -0.92 0.96 c-0.04 0.8 -0.02 1.62 -0.02 2.44 c0 1.4 -0.08 6.42 -0.04 7.54 z"></path></g></svg>