<svg width="140.92513026871893" height="304.7875061035156" viewBox="0 0 157.18134676413615 339.9458321938967" class="css-1j8o68f"><defs id="SvgjsDefs1620"><linearGradient id="SvgjsLinearGradient1627"><stop id="SvgjsStop1628" stop-color="#2d388a" offset="0"></stop><stop id="SvgjsStop1629" stop-color="#00aeef" offset="1"></stop></linearGradient></defs><g id="SvgjsG1621" featurekey="symbolFeature-0" transform="matrix(2.39517530149013,0,0,2.39517530149013,-40.11441997012804,-18.208123208413824)" fill="url(#SvgjsLinearGradient1627)"><g xmlns="http://www.w3.org/2000/svg"><g><path d="M50.467,8.649l-0.566-0.69c-0.016-0.022-0.031-0.044-0.052-0.062l-0.242-0.295l-0.241,0.294    c-0.022,0.02-0.038,0.043-0.055,0.067l-0.563,0.687C30.64,30.283,24.062,47.821,28.544,62.312    c3.623,11.626,16.015,13.726,19.92,14.009v15.821c0,0.666,0.478,1.143,1.143,1.143c0.666,0,1.141-0.477,1.141-1.143V76.32    c3.908-0.382,16.298-2.383,19.922-14.009C75.153,47.821,68.575,30.288,50.467,8.649z M49.607,37.127    c0.858,0,1.555,0.697,1.555,1.555c0,0.856-0.697,1.554-1.555,1.554c-0.857,0-1.555-0.697-1.555-1.554    C48.052,37.824,48.75,37.127,49.607,37.127z M49.607,60.908c0.924,0,1.674,0.751,1.674,1.675c0,0.797-0.56,1.463-1.308,1.631    c-0.118,0.026-0.24,0.043-0.366,0.043c-0.126,0-0.249-0.017-0.367-0.043c-0.747-0.168-1.308-0.834-1.308-1.631    C47.933,61.659,48.684,60.908,49.607,60.908z M69.163,58.463h-3.726l-4.384-4.385c-0.068-0.068-0.164-0.107-0.261-0.107h-1.286    c-0.174-0.944-0.999-1.665-1.994-1.665c-1.119,0-2.031,0.912-2.031,2.031c0,1.12,0.912,2.032,2.031,2.032    c0.994,0,1.82-0.72,1.994-1.665h1.135l4.385,4.385c0.068,0.068,0.163,0.107,0.26,0.107h3.735c-0.177,0.826-0.389,1.642-0.64,2.445    c-3.103,10.15-13.698,12.049-17.47,12.377c-0.051,0.005-0.102,0.008-0.153,0.013l-0.011,0.002    c-0.256,0.022-0.515,0.031-0.775,0.036v-2.977l3.402-3.403h2.028c0.174,0.945,1.001,1.665,1.994,1.665    c1.122,0,2.031-0.911,2.031-2.032c0-1.12-0.909-2.031-2.031-2.031c-0.994,0-1.82,0.72-1.994,1.665h-2.18    c-0.097,0-0.19,0.038-0.26,0.107l-2.991,2.991v-5.322c1.031-0.176,1.821-1.068,1.821-2.149c0-1.206-0.982-2.188-2.188-2.188    c-1.206,0-2.187,0.982-2.187,2.188c0,1.08,0.789,1.974,1.82,2.149v6.208v0.503l-3.398-4.249v-2.788    c0-0.022-0.009-0.044-0.014-0.066c0.65-0.857,0.593-2.081-0.188-2.862c0.094,0.093,0.187,0.187,0.227,0.226    c-0.025-0.024-0.087-0.087-0.227-0.227c-0.154-0.153-0.222-0.223-0.24-0.239c0.027,0.026,0.133,0.133,0.239,0.238    c-0.853-0.852-2.24-0.852-3.092,0.001c-0.853,0.854-0.853,2.241,0,3.095c0.693,0.693,1.736,0.812,2.562,0.379v2.372    c0,0.083,0.028,0.164,0.081,0.229l4.052,5.066v1.433c-0.56-0.027-1.114-0.086-1.651-0.197    c-4.259-0.505-13.816-2.749-16.736-12.301c-0.107-0.339-0.203-0.681-0.296-1.022l2.67-2.67h6.747c0.097,0,0.191-0.04,0.259-0.107    l0.616-0.615c0.79,0.545,1.883,0.47,2.586-0.233c0.792-0.792,0.792-2.081,0-2.873s-2.081-0.792-2.872,0    c-0.704,0.703-0.779,1.796-0.233,2.587l-0.508,0.508h-6.747c-0.097,0-0.191,0.04-0.259,0.107l-2.468,2.469    c-1.584-6.604-0.751-13.953,2.565-22.147c0.026,0.006,0.05,0.016,0.078,0.016h2.282l5.057,5.057    c-0.546,0.791-0.47,1.884,0.233,2.587c0.791,0.791,2.08,0.791,2.872,0c0.792-0.792,0.792-2.082,0-2.873    c-0.703-0.703-1.797-0.778-2.587-0.233l-5.164-5.165c-0.068-0.068-0.163-0.107-0.259-0.107h-2.21    c3.204-7.634,8.532-15.995,16.026-25.16v3.643l-4.025,4.025c-0.068,0.068-0.107,0.163-0.107,0.259V31.6    c-0.945,0.174-1.665,1-1.665,1.994c0,1.12,0.912,2.032,2.031,2.032c1.121,0,2.031-0.912,2.031-2.032    c0-0.994-0.718-1.82-1.664-1.994V19.757l3.398-3.399v5.159v15.17c-0.945,0.173-1.665,1-1.665,1.995    c0,1.12,0.912,2.031,2.032,2.031s2.031-0.912,2.031-2.031c0-0.995-0.72-1.821-1.665-1.995V22.402l3.335,3.335v7.578    c-0.945,0.174-1.664,1-1.664,1.994c0,1.12,0.911,2.031,2.031,2.031s2.031-0.912,2.031-2.031c0-0.995-0.72-1.821-1.665-1.994    v-7.729c0-0.097-0.039-0.19-0.107-0.259l-3.961-3.961v-5.891c0-0.001,0-0.002,0-0.003v-3.794    c5.302,6.483,9.519,12.563,12.668,18.272c-0.029,0.017-0.065,0.013-0.091,0.038l-2.015,2.015    c-0.067,0.068-0.106,0.163-0.106,0.259v8.3l-2.038,2.037c-0.79-0.546-1.883-0.471-2.586,0.231    c0.197-0.198,0.393-0.394-0.002,0.001c-0.001,0-0.001,0.001-0.002,0.002c-0.789,0.792-0.788,2.079,0.002,2.871    c0.792,0.792,2.081,0.792,2.873,0c0.703-0.704,0.778-1.796,0.233-2.587l2.145-2.145c0.068-0.069,0.107-0.163,0.107-0.259v-8.301    l1.828-1.827C68.661,41.08,70.686,50.308,69.163,58.463z M59.067,54.337c0,0.127-0.02,0.249-0.049,0.367    c-0.165,0.68-0.774,1.188-1.506,1.188c-0.857,0-1.555-0.697-1.555-1.555c0-0.856,0.697-1.555,1.555-1.555    c0.731,0,1.341,0.509,1.507,1.188C59.048,54.089,59.067,54.21,59.067,54.337z M55.844,67.322c0-0.127,0.02-0.248,0.049-0.366    c0.166-0.68,0.776-1.188,1.506-1.188c0.858,0,1.556,0.698,1.556,1.555c0,0.858-0.697,1.555-1.556,1.555    c-0.729,0-1.34-0.507-1.506-1.188C55.863,67.571,55.844,67.449,55.844,67.322z M42.91,64.208c-0.654-0.653-0.654-1.716,0-2.368    c0.653-0.652,1.714-0.652,2.367,0c0.563,0.563,0.638,1.431,0.229,2.078c-0.065,0.103-0.139,0.2-0.229,0.29    c-0.089,0.089-0.188,0.164-0.29,0.229C44.34,64.846,43.474,64.771,42.91,64.208z M40.9,54.369c0.605-0.606,1.592-0.606,2.198,0    c0.607,0.605,0.607,1.592,0,2.198c-0.516,0.517-1.307,0.589-1.905,0.226c-0.104-0.063-0.203-0.136-0.293-0.226    s-0.162-0.189-0.226-0.294C40.311,55.676,40.383,54.885,40.9,54.369z M41.193,42.454c0.598-0.364,1.389-0.292,1.905,0.225    c0.607,0.606,0.607,1.592,0,2.198c-0.605,0.607-1.592,0.607-2.198,0c-0.517-0.516-0.589-1.307-0.225-1.905    c0.063-0.104,0.135-0.204,0.225-0.293C40.99,42.589,41.089,42.517,41.193,42.454z M45.475,32.04c0.858,0,1.555,0.698,1.555,1.555    c0,0.858-0.697,1.555-1.555,1.555c-0.856,0-1.553-0.697-1.553-1.555C43.921,32.737,44.618,32.04,45.475,32.04z M53.676,33.754    c0.857,0,1.555,0.697,1.555,1.555c0,0.857-0.697,1.555-1.555,1.555c-0.856,0-1.555-0.698-1.555-1.555    C52.121,34.451,52.819,33.754,53.676,33.754z M58.34,45.367c-0.606,0.606-1.592,0.606-2.198,0c-0.606-0.606-0.606-1.593,0-2.199    c0.517-0.517,1.308-0.589,1.905-0.225c0.104,0.063,0.203,0.136,0.293,0.225c0.09,0.09,0.162,0.189,0.226,0.293    C58.93,44.06,58.857,44.851,58.34,45.367z"></path><path d="M43.435,42.342C44.227,43.133,42.643,41.55,43.435,42.342L43.435,42.342z"></path><path d="M40.563,54.031C41.354,53.239,39.771,54.823,40.563,54.031L40.563,54.031z"></path></g><path d="M66.147,49.979c-0.623,0-1.119,0.453-1.237,1.042H52.714v-0.497h-1.327v-0.961h1.327v-0.249h3.9   c0.064,0,0.128-0.025,0.174-0.071l3.617-3.617h3.829c0.117,0.589,0.613,1.042,1.238,1.042c0.71,0,1.286-0.576,1.286-1.287   c0-0.712-0.576-1.288-1.286-1.288c-0.625,0-1.121,0.453-1.238,1.042h-3.932c-0.064,0-0.127,0.026-0.172,0.072l-3.617,3.617h-3.8   v-0.544h-1.327V47.32h1.327v-1.28h-1.327V45.08h1.327v-0.401c0.062,0,0.125-0.024,0.172-0.071l3.856-3.855   c0.046-0.045,0.071-0.108,0.071-0.172V30.356l0.732-0.732c0.501,0.333,1.173,0.304,1.613-0.138c0.503-0.503,0.503-1.318,0-1.821   c-0.502-0.503-1.317-0.503-1.82,0c-0.441,0.441-0.472,1.112-0.139,1.612l-0.805,0.805c-0.046,0.046-0.071,0.109-0.071,0.173v10.222   l-3.61,3.611v-0.29h-1.327v-0.81h-3.559v0.81H46.5v0.29l-3.918-3.919v-7.466c0-0.064-0.027-0.127-0.073-0.172l-1.582-1.582   c0.335-0.5,0.305-1.171-0.138-1.613c-0.502-0.502-1.317-0.502-1.819,0c-0.503,0.503-0.503,1.318-0.001,1.821   c0.442,0.442,1.114,0.472,1.614,0.138l1.509,1.511v7.465c0,0.064,0.027,0.128,0.073,0.173l4.164,4.164   c0.047,0.047,0.11,0.071,0.172,0.071v0.401h1.328v0.961H46.5v1.28h1.328v0.961H46.5v0.324h-3.624l-5.869-5.87   c-0.045-0.045-0.109-0.072-0.173-0.072H35.61c-0.118-0.589-0.615-1.042-1.238-1.042c-0.711,0-1.288,0.577-1.288,1.287   c0,0.711,0.576,1.288,1.288,1.288c0.624,0,1.12-0.453,1.238-1.042h1.124l5.869,5.869c0.046,0.045,0.109,0.072,0.173,0.072H46.5   v0.469h1.328v0.961H46.5v0.497H34.313c-0.118-0.589-0.614-1.042-1.238-1.042c-0.71,0-1.288,0.577-1.288,1.287   c0,0.711,0.577,1.287,1.288,1.287c0.625,0,1.12-0.453,1.238-1.042H46.5v0.294h1.328v0.961H46.5v1.28h1.328v0.961H46.5v0.253   c-0.062,0-0.125,0.023-0.172,0.07l-5.776,5.775h-3.781c-0.118-0.589-0.615-1.042-1.238-1.042c-0.712,0-1.288,0.576-1.288,1.287   s0.576,1.287,1.288,1.287c0.624,0,1.121-0.453,1.238-1.043h3.882c0.063,0,0.126-0.025,0.172-0.071l5.674-5.675v0.439h1.328v1.608   h3.559v-1.608h1.327v-0.439l3.076,3.077h4.97l1.443,1.442c-0.334,0.501-0.304,1.172,0.138,1.613c0.503,0.503,1.317,0.503,1.821,0   c0.502-0.503,0.502-1.317,0-1.821c-0.442-0.44-1.113-0.471-1.614-0.138l-1.586-1.586h-4.969l-3.107-3.106   c-0.047-0.047-0.109-0.071-0.172-0.071v-0.252h-1.327v-0.961h1.327v-1.28h-1.327v-0.961h1.327v-0.294H64.91   c0.118,0.589,0.614,1.042,1.237,1.042c0.711,0,1.288-0.576,1.288-1.287C67.436,50.555,66.858,49.979,66.147,49.979z"></path></g></g><g id="SvgjsG1622" featurekey="nameFeature-0" transform="matrix(2.8068097636452882,0,0,2.8068097636452882,-5.613614173725812,203.55597244210833)" fill="#137dc5"><path d="M2 40 l0 -32 l3.6 0 l4.2 20 l0.4 0 l4.2 -20 l3.6 0 l0 32 l-4 0 l0 -16 l-2.84 16 l-2.4 0 l-2.76 -16 l0 16 l-4 0 z M22 40 l0 -16.8 c0 -11.16 0 -15.56 6 -15.56 s6 4.4 6 15.56 l0 16.8 l-4 0 l0 -9.2 l-4 0 l0 9.2 l-4 0 z M26 27.6 l4 0 l0 -4.4 c0 -10.4 0 -12.36 -2 -12.36 s-2 1.96 -2 12.36 l0 4.4 z M38 40 l0 -32 l4 0 l0 32 l-4 0 z M46 40 l0 -16.8 c0 -11.16 0 -15.56 6 -15.56 s6 4.4 6 15.56 l0 16.8 l-4 0 l0 -9.2 l-4 0 l0 9.2 l-4 0 z M50 27.6 l4 0 l0 -4.4 c0 -10.4 0 -12.36 -2 -12.36 s-2 1.96 -2 12.36 l0 4.4 z"></path></g><g id="SvgjsG1623" featurekey="sloganFeature-0" transform="matrix(0.25889236738954075,0,0,0.25889236738954075,0.7405322962122302,334.75501042702695)" fill="#0c4f7d"><path d="M1.02 6.539999999999999 c0 0.96 -0.04 11.28 0 12.2 c0.02 0.22 0.02 0.44 0.02 0.66 c0 0.16 0.1 0.26 0.24 0.32 c0.12 0.04 0.28 0.08 0.4 0.08 c0.58 -0.06 1.2 0 1.8 -0.02 c1.04 0.08 1.98 -0.16 2.88 -0.64 c0.84 -0.48 1.3 -1.34 1.62 -2.24 c0.26 -0.76 0.22 -1.66 0.08 -2.44 c-0.12 -0.7 -0.44 -1.38 -0.86 -1.94 c-0.06 -0.08 -0.92 -0.62 -0.88 -0.66 c0.52 -0.74 1.26 -1.36 1.36 -2.28 c0.08 -0.8 -0.1 -1.62 -0.38 -2.36 c-0.18 -0.48 -0.42 -0.94 -0.8 -1.3 c-0.64 -0.6 -1.6 -0.86 -2.44 -0.94 c-0.86 -0.08 -1.66 -0.02 -2.52 -0.06 c-0.3 0 -0.44 0.12 -0.44 0.44 c0 0.42 -0.08 0.76 -0.08 1.18 z M3.48 10.18 c-0.02 -0.22 0 -1.98 -0.04 -2.64 c-0.02 -0.24 0.12 -0.36 0.38 -0.3 c0.2 0.04 0.36 0.06 0.52 0.18 c0.5 0.38 0.88 0.84 0.9 1.48 c0 0.32 0 0.64 -0.12 0.94 c-0.14 0.36 -0.34 0.64 -0.7 0.82 c-0.24 0.12 -0.46 0.26 -0.7 0.36 c-0.12 0.04 -0.24 -0.02 -0.26 -0.14 c0 -0.24 0.02 -0.7 0.02 -0.7 z M5.48 15.48 c0 0.1 -0.02 0.28 -0.02 0.46 c-0.02 0.6 -0.8 1.36 -1.7 1.38 c-0.06 0 -0.16 -0.06 -0.18 -0.12 c-0.04 -0.12 -0.08 -0.26 -0.08 -0.4 c-0.02 -0.62 0 -1.22 0 -1.88 c0.06 -0.42 0.02 -0.86 0.02 -1.3 c0.02 -0.34 0.1 -0.4 0.42 -0.46 c0.48 -0.06 0.92 0.14 1.14 0.52 c0.26 0.46 0.36 0.96 0.4 1.48 l0 0.32 z M24.278 8.28 c0 2.02 0.02 4.06 0.06 6.06 c0.02 1.22 0 2.6 0.58 3.72 c0.74 1.44 2.38 2.08 3.96 1.98 c1.08 -0.08 2.08 -0.36 2.86 -1.16 c1.32 -1.42 1.06 -3.64 1.08 -5.46 c0.04 -2.62 0.1 -5.06 0.1 -7.7 c0 -0.44 -0.14 -0.68 -0.58 -0.7 c-0.54 -0.02 -1.08 0 -1.62 0.04 c-0.22 0 -0.4 0.2 -0.4 0.44 c0.02 1.92 0.06 3.86 0.04 5.8 c-0.02 1.66 0.2 3.5 -0.42 5.08 c-0.24 0.58 -0.78 1.02 -1.42 1.02 c-1.6 -0.04 -1.54 -1.94 -1.6 -3.06 c-0.12 -2.44 0.06 -4.94 0.12 -7.38 c0 -0.46 0 -0.92 0.02 -1.38 c0.02 -0.24 0.06 -0.54 -0.26 -0.56 l-0.36 0 c-0.5 0.04 -1 -0.02 -1.5 0 c-0.48 0.04 -0.64 0.18 -0.64 0.66 c0 0.86 -0.02 1.74 -0.02 2.6 z M51.775999999999996 14.84 c-0.06 -2.28 -0.04 -4.7 -0.02 -6.96 c0 -0.7 -0.04 -1.46 -0.04 -2.16 c0 -0.76 -0.3 -0.72 -0.7 -0.74 c-0.58 -0.02 -0.84 -0.02 -1.42 -0.02 c-0.38 -0.02 -0.54 0.08 -0.54 0.46 c0 1.96 -0.06 7.5 -0.04 8.3 s0.1 4.44 0.06 5.24 c-0.02 0.28 0 0.56 0.02 0.84 c0.02 0.1 0.08 0.2 0.24 0.2 c0.66 -0.04 1.28 -0.04 1.94 -0.06 c0.24 -0.02 0.44 -0.08 0.54 -0.34 c0.02 -0.14 -0.04 -3.8 -0.04 -4.76 z M67.914 6.960000000000001 c-0.02 1.24 0.1 10.3 0.08 10.96 c0 0.62 0 1.24 0.02 1.86 c0 0.1 0.06 0.2 0.16 0.2 c1.4 0.06 2.78 -0.06 4.18 -0.04 c0.46 0.02 0.92 0 1.36 0 c0.44 -0.02 0.48 -0.2 0.46 -0.56 c-0.02 -0.56 -0.02 -1.06 -0.02 -1.6 c-0.02 -0.28 -0.18 -0.38 -0.42 -0.38 c-0.82 0.02 -1.64 -0.02 -2.46 0.02 c-0.14 0.02 -0.28 0.02 -0.42 0.02 c-0.24 -0.02 -0.3 -0.08 -0.32 -0.34 l0 -0.3 c-0.06 -1.66 0.06 -3.38 0.06 -5.04 c-0.02 -1.4 0 -2.66 -0.02 -3.9 c0 -0.54 0 -1.08 -0.02 -1.6 c-0.02 -0.32 0 -0.66 -0.08 -0.98 c-0.04 -0.12 -0.1 -0.28 -0.24 -0.28 l-1.88 0 c-0.32 0 -0.42 0.22 -0.44 0.54 l0 1.42 z M98.692 16.32 c0.12 -0.26 0.22 -0.52 0.32 -0.78 c0.22 -0.64 0.26 -1.3 0.32 -1.96 c0.12 -1.4 0.08 -2.82 -0.28 -4.18 c-0.44 -1.74 -1.56 -3.34 -3.24 -4.08 c-0.76 -0.34 -1.62 -0.38 -2.44 -0.36 c-0.86 0 -1.74 -0.04 -2.6 0.04 c-0.24 0.02 -0.36 0.14 -0.4 0.36 c-0.04 0.24 -0.08 0.48 -0.08 0.7 c0.04 1.22 0 4.84 0.04 5.44 c0.02 0.54 -0.04 1.2 -0.04 1.74 c0.02 1.34 0 2.7 0 4.04 c0 0.56 -0.02 1.1 -0.02 1.66 c0 0.6 -0.22 0.86 1.42 0.86 c1.46 0 2.98 -0.12 4.36 -0.64 c1.28 -0.46 2.08 -1.64 2.64 -2.84 z M92.87199999999999 14.24 l0 -2.4 c0 -1.52 0.04 -2.5 -0.02 -3.78 l0 -0.24 c0.02 -0.42 0.08 -0.44 0.52 -0.44 c0.58 -0.02 1 0.12 1.5 0.32 s0.78 0.64 1.04 1.06 c0.5 0.82 0.7 1.72 0.74 2.66 c0.02 0.54 0.04 1.08 0.04 1.62 c0 2.56 -1.5 4.34 -2.82 4.34 c-0.88 0 -1.02 0.06 -1.02 -0.52 c0 -0.6 0.04 -1.2 0.04 -1.8 c-0.02 -0.26 -0.02 -0.54 -0.02 -0.82 z M118.25 14.84 c-0.06 -2.28 -0.04 -4.7 -0.02 -6.96 c0 -0.7 -0.04 -1.46 -0.04 -2.16 c0 -0.76 -0.3 -0.72 -0.7 -0.74 c-0.58 -0.02 -0.84 -0.02 -1.42 -0.02 c-0.38 -0.02 -0.54 0.08 -0.54 0.46 c0 1.96 -0.06 7.5 -0.04 8.3 s0.1 4.44 0.06 5.24 c-0.02 0.28 0 0.56 0.02 0.84 c0.02 0.1 0.08 0.2 0.24 0.2 c0.66 -0.04 1.28 -0.04 1.94 -0.06 c0.24 -0.02 0.44 -0.08 0.54 -0.34 c0.02 -0.14 -0.04 -3.8 -0.04 -4.76 z M142.90800000000002 5.460000000000001 c0.06 0.28 0.02 13.6 0.02 13.94 c0 0.6 -0.22 0.58 -0.62 0.58 c-0.6 0 -1.44 0.1 -1.62 -0.1 c-0.16 -0.14 -3.12 -7.28 -3.54 -8.18 c-0.04 -0.08 -0.14 -0.28 -0.22 -0.24 c-0.1 0.04 -0.06 0.18 -0.06 0.26 c-0.02 0.7 0.1 6.74 0.1 7.7 c0 0.48 -0.02 0.56 -0.42 0.56 l-1 0 c-0.26 0 -0.58 -0.02 -0.84 0.02 c-0.2 0 -0.3 -0.06 -0.32 -0.26 l0 -1.58 c0.04 -1.68 0 -11.64 0 -12.38 c0 -0.64 0.18 -0.76 0.82 -0.76 c0.44 -0.02 0.88 -0.02 1.32 -0.02 c0.14 0 0.22 0.02 0.3 0.2 c0.54 1.26 2.84 7.04 3.2 7.74 c0.06 0.14 0.28 0.7 0.4 0.76 l0.02 0 c0.08 -0.08 0.06 -0.48 0.06 -0.6 c0 -0.3 -0.16 -7.32 -0.16 -7.46 c0 -0.2 -0.06 -0.38 0.04 -0.52 c0.06 -0.08 0.32 -0.1 0.42 -0.12 c0.56 -0.04 1.22 0.02 1.78 0 c0.28 0 0.26 0.2 0.32 0.46 z M167.986 16.64 c0.02 0.96 0 1.94 -0.06 2.9 c0 0.08 -0.06 0.16 -0.12 0.2 c-0.08 0.06 -0.18 0.1 -0.28 0.1 c-1.24 0.2 -2.74 0.3 -3.94 -0.1 c-2.7 -0.92 -4.54 -3.94 -4.54 -7.4 c0 -3.74 2.68 -7.38 6.58 -7.52 c0.52 -0.02 2.3 -0.1 2.24 0.78 c-0.04 0.64 0.02 1.16 0 1.82 c0 0.12 -0.08 0.2 -0.2 0.18 c-1.14 -0.14 -2.44 -0.5 -3.54 0.02 c-0.92 0.44 -1.56 1.38 -1.92 2.3 c-0.64 1.52 -0.5 3.28 -0.06 4.84 c0.34 1.24 1.08 2.7 2.56 2.74 c0.08 0.02 0.84 0.06 0.84 -0.02 l-0.06 -2.56 c-0.02 -0.12 -0.02 -0.24 -0.04 -0.36 s-0.1 -0.16 -0.22 -0.18 c-0.32 0 -0.32 -0.02 -0.64 -0.02 c-0.74 0 -0.58 -0.5 -0.6 -0.66 c-0.02 -0.3 0 -0.58 -0.02 -0.88 c-0.02 -0.28 0.06 -0.5 0.34 -0.54 l0.24 0 c1.04 -0.06 2.1 0.02 3.2 0.02 c0.16 0 0.24 0.2 0.24 0.38 c0.02 0.2 0.02 0.34 0.02 0.54 c0.06 0.98 -0.06 1.98 -0.04 2.96 c0.02 0.16 0.02 0.3 0.02 0.46 z M205.76199999999997 17.82 c0.02 0.62 0.02 1.24 0.04 1.86 c0 0.28 0.02 0.32 0.3 0.32 l1.8 0 c0.38 0 0.3 -0.64 0.28 -0.98 l0.06 -11.2 c0 -0.3 0.1 -0.4 0.5 -0.4 l1.76 0 c0.42 0 0.32 -0.72 0.32 -1.22 c0 -0.44 0.16 -1.2 -0.32 -1.2 c-0.34 0 -3.6 0 -4.94 0.02 c-0.66 0 -1.2 -0.02 -1.86 -0.02 c-0.5 0 -0.48 0.4 -0.48 1.28 c0 0.56 -0.02 1.12 0.46 1.12 c0.28 0 1.42 0 1.74 0.02 c0.2 0 0.34 0.06 0.38 0.28 c0 0.06 0.02 0.12 0.02 0.18 c0 1.44 -0.1 8.14 -0.06 9.94 z M232.93999999999997 14.08 c0 0.9 -0.02 2.68 -0.04 2.68 l0 2.72 c0 0.12 -0.02 0.32 0.04 0.44 c0.06 0.14 0.24 0.1 0.36 0.08 c0.58 -0.06 1.16 0.02 1.74 0 c0.64 -0.02 0.44 -1 0.42 -1.4 c-0.08 -0.88 0.02 -7.58 0.02 -9.98 c0 -1.08 -0.04 -3.3 -0.1 -3.4 c-0.1 -0.18 -0.36 -0.22 -0.56 -0.24 c-0.44 -0.08 -0.66 0.04 -1.32 0.04 s-0.7 0.2 -0.7 0.9 l0 0.6 c-0.02 0.48 0.06 3.84 0.06 4.38 c0 0.26 -0.02 0.28 -0.28 0.28 c-0.66 -0.02 -1.58 0.06 -2.26 0 c-0.98 -0.08 -0.76 0 -0.82 -0.9 l0 -0.12 c0 -1.28 0.16 -4.6 0.1 -4.8 c-0.1 -0.3 -0.22 -0.36 -0.48 -0.34 c-0.6 0.04 -1.22 -0.06 -1.82 -0.02 c-0.2 0.02 -0.26 0.08 -0.32 0.28 c-0.02 0.1 -0.04 0.2 -0.04 0.3 c0 0.62 0.04 1.46 0.06 2.08 l-0.06 11.86 c0 0.52 0.46 0.46 1.48 0.46 c0.94 0 1.18 0.22 1.18 -0.9 c0 -0.9 -0.06 -2.04 -0.04 -2.94 c0.02 -0.7 0 -1.38 0 -2.08 c0.02 -0.26 0.08 -0.34 0.32 -0.34 c0.88 -0.02 1.84 0 2.72 0 c0.28 0 0.34 0.04 0.34 0.36 z M251.61799999999997 15.9 l-0.02 0 c0 0.5 -0.02 1.02 0 1.54 c0.02 0.64 0.06 1.28 0.1 1.92 c0 0.22 0.06 0.28 0.26 0.32 c0.42 0.1 0.82 0.12 1.24 0.12 c1.08 -0.04 2.16 0.04 3.24 0 c0.44 -0.02 0.64 0.02 1.08 -0.06 c0.4 -0.08 0.54 -0.3 0.54 -0.9 c-0.04 -0.38 -0.02 -0.54 -0.02 -1 c0 -0.66 -0.46 -0.88 -0.86 -0.86 c-0.28 0.02 -1.62 -0.02 -2.16 -0.02 c-0.9 0.02 -0.76 0.14 -0.76 -0.8 c0 -0.76 0.02 -1.74 0.02 -2.52 c0 -0.42 0.04 -0.56 0.44 -0.56 l2.5 0 c0.4 0.06 0.68 -0.22 0.68 -0.64 s0.04 -0.44 0.04 -0.86 l-0.06 -0.6 c-0.04 -0.34 -0.16 -0.46 -0.5 -0.46 c-0.22 0 -0.44 0.02 -0.66 0.04 c-0.86 0.06 -1.26 -0.06 -2.1 0 c-0.28 0 -0.32 -0.04 -0.34 -0.3 c-0.08 -0.78 0 -1.64 0.08 -2.42 c0.02 -0.32 0.1 -0.38 0.4 -0.4 l2.82 -0.02 c0.38 -0.04 0.5 -0.02 0.48 -0.4 c-0.04 -0.58 0.02 -1.18 -0.04 -1.76 c-0.04 -0.32 -0.14 -0.38 -0.5 -0.38 c-0.6 0.02 -0.74 0.02 -1.34 0.06 c-0.6 0.02 -3 0.02 -3.58 0.02 c-0.84 0 -0.9 -0.06 -0.92 0.96 c-0.04 0.8 -0.02 1.62 -0.02 2.44 c0 1.4 -0.08 6.42 -0.04 7.54 z M295.09399999999994 19.84 c0.06 0.02 0.24 0.02 0.42 0.02 c0.4 0 0.52 -1.44 0.56 -1.74 c0.02 -0.24 0.08 -0.26 0.28 -0.3 c1 -0.12 1.5 -0.04 2.5 -0.02 c0.22 0 0.34 0.1 0.4 0.28 l0.14 0.46 c0.12 0.34 0.22 0.76 0.34 1.1 c0.08 0.24 0.1 0.22 0.34 0.22 c0.32 0 1.48 0 1.82 -0.02 c0.46 0 0.14 -0.94 0.08 -1.1 c-0.18 -0.56 -0.22 -1.14 -0.4 -1.7 c-0.08 -0.24 -2.36 -11.06 -2.46 -11.66 c-0.14 -0.36 -0.02 -0.38 -0.34 -0.38 c-0.68 0 -1.4 0.04 -2.1 0 c-0.28 0 -0.26 0.08 -0.3 0.38 c-0.04 0.28 -0.76 3.46 -1.04 4.78 c-0.36 1.66 -0.68 3.26 -1.08 4.9 c-0.14 0.58 -1.1 4.76 -0.98 4.78 c0.06 0.04 0.16 0.02 0.24 0.02 c0.5 0 0.96 0 1.58 -0.02 z M297.71399999999994 15.3 l-0.42 0 c-0.56 0 -0.58 0 -0.44 -0.58 c0.1 -0.44 0.64 -2.82 0.76 -3.4 c0.02 -0.04 0.06 -0.08 0.08 -0.08 c0.04 0 0.08 0.04 0.1 0.06 c0.08 0.24 0.16 0.84 0.24 1.08 c0.18 0.76 0.3 1.4 0.48 2.22 c0.18 0.72 0.1 0.72 -0.26 0.72 c-0.18 0 -0.36 -0.02 -0.54 -0.02 z M326.75199999999995 5.460000000000001 c0.06 0.28 0.02 13.6 0.02 13.94 c0 0.6 -0.22 0.58 -0.62 0.58 c-0.6 0 -1.44 0.1 -1.62 -0.1 c-0.16 -0.14 -3.12 -7.28 -3.54 -8.18 c-0.04 -0.08 -0.14 -0.28 -0.22 -0.24 c-0.1 0.04 -0.06 0.18 -0.06 0.26 c-0.02 0.7 0.1 6.74 0.1 7.7 c0 0.48 -0.02 0.56 -0.42 0.56 l-1 0 c-0.26 0 -0.58 -0.02 -0.84 0.02 c-0.2 0 -0.3 -0.06 -0.32 -0.26 l0 -1.58 c0.04 -1.68 0 -11.64 0 -12.38 c0 -0.64 0.18 -0.76 0.82 -0.76 c0.44 -0.02 0.88 -0.02 1.32 -0.02 c0.14 0 0.22 0.02 0.3 0.2 c0.54 1.26 2.84 7.04 3.2 7.74 c0.06 0.14 0.28 0.7 0.4 0.76 l0.02 0 c0.08 -0.08 0.06 -0.48 0.06 -0.6 c0 -0.3 -0.16 -7.32 -0.16 -7.46 c0 -0.2 -0.06 -0.38 0.04 -0.52 c0.06 -0.08 0.32 -0.1 0.42 -0.12 c0.56 -0.04 1.22 0.02 1.78 0 c0.28 0 0.26 0.2 0.32 0.46 z M350.78999999999996 7.359999999999999 c0.02 -0.66 0 -1.2 0 -1.84 c0 -0.74 -1.34 -0.66 -1.82 -0.64 c-2.14 0.14 -4.18 1.5 -5.16 3.36 c-0.28 0.54 -0.48 1.1 -0.62 1.68 c-0.34 1.36 -0.36 2.8 -0.2 4.18 c0.14 1.3 0.48 2.6 1.28 3.64 c1.38 1.82 3.92 2.46 6.1 2.12 c0.1 -0.02 0.2 -0.04 0.28 -0.1 c0.06 -0.04 0.12 -0.12 0.12 -0.2 l0.06 -1.14 c0.02 -0.36 0 -0.34 0 -0.7 c0 -0.48 -1 -0.12 -1.62 -0.12 c-0.6 0 -1.24 -0.02 -1.78 -0.3 c-0.96 -0.54 -1.5 -1.62 -1.8 -2.64 c-0.34 -1.1 -0.42 -2.28 -0.22 -3.4 c0.24 -1.46 0.94 -3.14 2.48 -3.64 c0.88 -0.3 1.82 -0.2 2.7 -0.1 c0.12 0.02 0.2 -0.06 0.2 -0.16 z M369.688 14.84 c-0.06 -2.28 -0.04 -4.7 -0.02 -6.96 c0 -0.7 -0.04 -1.46 -0.04 -2.16 c0 -0.76 -0.3 -0.72 -0.7 -0.74 c-0.58 -0.02 -0.84 -0.02 -1.42 -0.02 c-0.38 -0.02 -0.54 0.08 -0.54 0.46 c0 1.96 -0.06 7.5 -0.04 8.3 s0.1 4.44 0.06 5.24 c-0.02 0.28 0 0.56 0.02 0.84 c0.02 0.1 0.08 0.2 0.24 0.2 c0.66 -0.04 1.28 -0.04 1.94 -0.06 c0.24 -0.02 0.44 -0.08 0.54 -0.34 c0.02 -0.14 -0.04 -3.8 -0.04 -4.76 z M385.846 15.9 l-0.02 0 c0 0.5 -0.02 1.02 0 1.54 c0.02 0.64 0.06 1.28 0.1 1.92 c0 0.22 0.06 0.28 0.26 0.32 c0.42 0.1 0.82 0.12 1.24 0.12 c1.08 -0.04 2.16 0.04 3.24 0 c0.44 -0.02 0.64 0.02 1.08 -0.06 c0.4 -0.08 0.54 -0.3 0.54 -0.9 c-0.04 -0.38 -0.02 -0.54 -0.02 -1 c0 -0.66 -0.46 -0.88 -0.86 -0.86 c-0.28 0.02 -1.62 -0.02 -2.16 -0.02 c-0.9 0.02 -0.76 0.14 -0.76 -0.8 c0 -0.76 0.02 -1.74 0.02 -2.52 c0 -0.42 0.04 -0.56 0.44 -0.56 l2.5 0 c0.4 0.06 0.68 -0.22 0.68 -0.64 s0.04 -0.44 0.04 -0.86 l-0.06 -0.6 c-0.04 -0.34 -0.16 -0.46 -0.5 -0.46 c-0.22 0 -0.44 0.02 -0.66 0.04 c-0.86 0.06 -1.26 -0.06 -2.1 0 c-0.28 0 -0.32 -0.04 -0.34 -0.3 c-0.08 -0.78 0 -1.64 0.08 -2.42 c0.02 -0.32 0.1 -0.38 0.4 -0.4 l2.82 -0.02 c0.38 -0.04 0.5 -0.02 0.48 -0.4 c-0.04 -0.58 0.02 -1.18 -0.04 -1.76 c-0.04 -0.32 -0.14 -0.38 -0.5 -0.38 c-0.6 0.02 -0.74 0.02 -1.34 0.06 c-0.6 0.02 -3 0.02 -3.58 0.02 c-0.84 0 -0.9 -0.06 -0.92 0.96 c-0.04 0.8 -0.02 1.62 -0.02 2.44 c0 1.4 -0.08 6.42 -0.04 7.54 z M416.904 5.460000000000001 c0.06 0.28 0.02 13.6 0.02 13.94 c0 0.6 -0.22 0.58 -0.62 0.58 c-0.6 0 -1.44 0.1 -1.62 -0.1 c-0.16 -0.14 -3.12 -7.28 -3.54 -8.18 c-0.04 -0.08 -0.14 -0.28 -0.22 -0.24 c-0.1 0.04 -0.06 0.18 -0.06 0.26 c-0.02 0.7 0.1 6.74 0.1 7.7 c0 0.48 -0.02 0.56 -0.42 0.56 l-1 0 c-0.26 0 -0.58 -0.02 -0.84 0.02 c-0.2 0 -0.3 -0.06 -0.32 -0.26 l0 -1.58 c0.04 -1.68 0 -11.64 0 -12.38 c0 -0.64 0.18 -0.76 0.82 -0.76 c0.44 -0.02 0.88 -0.02 1.32 -0.02 c0.14 0 0.22 0.02 0.3 0.2 c0.54 1.26 2.84 7.04 3.2 7.74 c0.06 0.14 0.28 0.7 0.4 0.76 l0.02 0 c0.08 -0.08 0.06 -0.48 0.06 -0.6 c0 -0.3 -0.16 -7.32 -0.16 -7.46 c0 -0.2 -0.06 -0.38 0.04 -0.52 c0.06 -0.08 0.32 -0.1 0.42 -0.12 c0.56 -0.04 1.22 0.02 1.78 0 c0.28 0 0.26 0.2 0.32 0.46 z M435.58200000000005 17.82 c0.02 0.62 0.02 1.24 0.04 1.86 c0 0.28 0.02 0.32 0.3 0.32 l1.8 0 c0.38 0 0.3 -0.64 0.28 -0.98 l0.06 -11.2 c0 -0.3 0.1 -0.4 0.5 -0.4 l1.76 0 c0.42 0 0.32 -0.72 0.32 -1.22 c0 -0.44 0.16 -1.2 -0.32 -1.2 c-0.34 0 -3.6 0 -4.94 0.02 c-0.66 0 -1.2 -0.02 -1.86 -0.02 c-0.5 0 -0.48 0.4 -0.48 1.28 c0 0.56 -0.02 1.12 0.46 1.12 c0.28 0 1.42 0 1.74 0.02 c0.2 0 0.34 0.06 0.38 0.28 c0 0.06 0.02 0.12 0.02 0.18 c0 1.44 -0.1 8.14 -0.06 9.94 z M475.87800000000004 15.9 l-0.02 0 c0 0.5 -0.02 1.02 0 1.54 c0.02 0.64 0.04 1.28 0.08 1.92 c0.02 0.22 0.06 0.28 0.28 0.32 c0.4 0.1 0.82 0.12 1.24 0.12 c1.08 -0.04 1.08 -0.22 1.08 -0.96 c-0.04 -0.38 -0.02 -0.54 -0.02 -1 c0 -0.66 -0.02 -0.74 -0.02 -1.68 c0.02 -0.76 0.02 -1.74 0.02 -2.52 c0 -0.42 0.06 -0.56 0.44 -0.56 l2.92 0 c0.42 0.06 0.26 -0.22 0.26 -0.64 s0.06 -0.44 0.04 -0.86 c0 -0.2 -0.04 -0.4 -0.06 -0.6 c-0.04 -0.34 -0.16 -0.46 -0.5 -0.46 c-0.22 0 -0.02 0.02 -0.22 0.04 c-0.86 0.06 -1.68 -0.06 -2.54 0 c-0.28 0 -0.32 -0.04 -0.34 -0.3 c-0.06 -0.78 0 -1.64 0.08 -2.42 c0.04 -0.32 0.1 -0.38 0.4 -0.4 l2.82 -0.02 c0.4 -0.04 0.52 -0.02 0.48 -0.4 c-0.04 -0.58 0.04 -1.18 -0.04 -1.76 c-0.04 -0.32 -0.12 -0.38 -0.48 -0.38 c-0.6 0.02 -0.74 0.02 -1.34 0.06 c-0.6 0.02 -3.02 0.02 -3.6 0.02 c-0.82 0 -0.9 -0.06 -0.92 0.96 c-0.02 0.8 -0.02 1.62 -0.02 2.44 c0 1.4 -0.08 6.42 -0.02 7.54 z M498.3960000000001 8.28 c0 2.02 0.02 4.06 0.06 6.06 c0.02 1.22 0 2.6 0.58 3.72 c0.74 1.44 2.38 2.08 3.96 1.98 c1.08 -0.08 2.08 -0.36 2.86 -1.16 c1.32 -1.42 1.06 -3.64 1.08 -5.46 c0.04 -2.62 0.1 -5.06 0.1 -7.7 c0 -0.44 -0.14 -0.68 -0.58 -0.7 c-0.54 -0.02 -1.08 0 -1.62 0.04 c-0.22 0 -0.4 0.2 -0.4 0.44 c0.02 1.92 0.06 3.86 0.04 5.8 c-0.02 1.66 0.2 3.5 -0.42 5.08 c-0.24 0.58 -0.78 1.02 -1.42 1.02 c-1.6 -0.04 -1.54 -1.94 -1.6 -3.06 c-0.12 -2.44 0.06 -4.94 0.12 -7.38 c0 -0.46 0 -0.92 0.02 -1.38 c0.02 -0.24 0.06 -0.54 -0.26 -0.56 l-0.36 0 c-0.5 0.04 -1 -0.02 -1.5 0 c-0.48 0.04 -0.64 0.18 -0.64 0.66 c0 0.86 -0.02 1.74 -0.02 2.6 z M525.674 17.82 c0.02 0.62 0.02 1.24 0.04 1.86 c0 0.28 0.02 0.32 0.3 0.32 l1.8 0 c0.38 0 0.3 -0.64 0.28 -0.98 l0.06 -11.2 c0 -0.3 0.1 -0.4 0.5 -0.4 l1.76 0 c0.42 0 0.32 -0.72 0.32 -1.22 c0 -0.44 0.16 -1.2 -0.32 -1.2 c-0.34 0 -3.6 0 -4.94 0.02 c-0.66 0 -1.2 -0.02 -1.86 -0.02 c-0.5 0 -0.48 0.4 -0.48 1.28 c0 0.56 -0.02 1.12 0.46 1.12 c0.28 0 1.42 0 1.74 0.02 c0.2 0 0.34 0.06 0.38 0.28 c0 0.06 0.02 0.12 0.02 0.18 c0 1.44 -0.1 8.14 -0.06 9.94 z M546.852 8.28 c0 2.02 0.02 4.06 0.06 6.06 c0.02 1.22 0 2.6 0.58 3.72 c0.74 1.44 2.38 2.08 3.96 1.98 c1.08 -0.08 2.08 -0.36 2.86 -1.16 c1.32 -1.42 1.06 -3.64 1.08 -5.46 c0.04 -2.62 0.1 -5.06 0.1 -7.7 c0 -0.44 -0.14 -0.68 -0.58 -0.7 c-0.54 -0.02 -1.08 0 -1.62 0.04 c-0.22 0 -0.4 0.2 -0.4 0.44 c0.02 1.92 0.06 3.86 0.04 5.8 c-0.02 1.66 0.2 3.5 -0.42 5.08 c-0.24 0.58 -0.78 1.02 -1.42 1.02 c-1.6 -0.04 -1.54 -1.94 -1.6 -3.06 c-0.12 -2.44 0.06 -4.94 0.12 -7.38 c0 -0.46 0 -0.92 0.02 -1.38 c0.02 -0.24 0.06 -0.54 -0.26 -0.56 l-0.36 0 c-0.5 0.04 -1 -0.02 -1.5 0 c-0.48 0.04 -0.64 0.18 -0.64 0.66 c0 0.86 -0.02 1.74 -0.02 2.6 z M574.0699999999999 18.5 c0 -0.52 0 -3.8 0.02 -4.06 c0.02 -0.06 0.06 -0.18 0.14 -0.18 s0.12 0.04 0.14 0.1 c0.8 1.56 1.5 3.12 2.22 4.64 c0.1 0.22 0.32 0.86 0.38 0.92 c0.08 0.12 0.22 0.08 0.34 0.08 l2.2 0.02 c0.26 0 0.32 -0.16 0.26 -0.38 c-0.16 -0.6 -1.3 -2.72 -1.56 -3.24 c-0.18 -0.4 -1.38 -2.72 -1.42 -2.9 c-0.04 -0.08 0.26 -0.22 0.3 -0.28 c0.96 -0.86 1.82 -1.74 2 -3.08 c0.2 -1.32 -0.1 -2.76 -0.96 -3.82 c-0.66 -0.78 -1.52 -1.24 -2.54 -1.3 c-0.62 -0.04 -1.22 0.02 -1.84 0 c-0.54 -0.02 -0.92 -0.02 -1.6 -0.02 c-0.32 0 -0.52 0.18 -0.54 0.52 l0 0.24 c-0.04 1.54 0 3.08 0.02 4.6 c0 2.32 -0.04 8.44 -0.04 9.32 c0 0.26 0.04 0.32 0.28 0.32 c0.14 0 0.3 0.02 0.44 0.02 c0.56 0 0.9 -0.02 1.48 -0.02 c0.44 0 0.28 -0.72 0.28 -1.5 z M574.0699999999999 10.7 l0.02 -2.02 c0.02 -0.3 -0.08 -0.9 0.2 -1.12 c0.38 -0.28 1.16 0 1.5 0.24 c1 0.68 0.92 2.36 0.38 3.3 c-0.26 0.44 -0.7 0.7 -1.2 0.84 c-0.3 0.08 -0.86 0.18 -0.88 -0.3 c0 -0.32 -0.02 -0.94 -0.02 -0.94 z M595.9079999999999 15.9 l-0.02 0 c0 0.5 -0.02 1.02 0 1.54 c0.02 0.64 0.06 1.28 0.1 1.92 c0 0.22 0.06 0.28 0.26 0.32 c0.42 0.1 0.82 0.12 1.24 0.12 c1.08 -0.04 2.16 0.04 3.24 0 c0.44 -0.02 0.64 0.02 1.08 -0.06 c0.4 -0.08 0.54 -0.3 0.54 -0.9 c-0.04 -0.38 -0.02 -0.54 -0.02 -1 c0 -0.66 -0.46 -0.88 -0.86 -0.86 c-0.28 0.02 -1.62 -0.02 -2.16 -0.02 c-0.9 0.02 -0.76 0.14 -0.76 -0.8 c0 -0.76 0.02 -1.74 0.02 -2.52 c0 -0.42 0.04 -0.56 0.44 -0.56 l2.5 0 c0.4 0.06 0.68 -0.22 0.68 -0.64 s0.04 -0.44 0.04 -0.86 l-0.06 -0.6 c-0.04 -0.34 -0.16 -0.46 -0.5 -0.46 c-0.22 0 -0.44 0.02 -0.66 0.04 c-0.86 0.06 -1.26 -0.06 -2.1 0 c-0.28 0 -0.32 -0.04 -0.34 -0.3 c-0.08 -0.78 0 -1.64 0.08 -2.42 c0.02 -0.32 0.1 -0.38 0.4 -0.4 l2.82 -0.02 c0.38 -0.04 0.5 -0.02 0.48 -0.4 c-0.04 -0.58 0.02 -1.18 -0.04 -1.76 c-0.04 -0.32 -0.14 -0.38 -0.5 -0.38 c-0.6 0.02 -0.74 0.02 -1.34 0.06 c-0.6 0.02 -3 0.02 -3.58 0.02 c-0.84 0 -0.9 -0.06 -0.92 0.96 c-0.04 0.8 -0.02 1.62 -0.02 2.44 c0 1.4 -0.08 6.42 -0.04 7.54 z"></path></g></svg>